<svg width="470" height="777" viewBox="0 0 470 777" fill="none" xmlns="http://www.w3.org/2000/svg">
<path fill-rule="evenodd" clip-rule="evenodd" d="M106.551 484.498C111.66 482.746 116.582 480.722 121.067 477.746C133.998 468.483 142.428 454.547 150.393 441.342C161.616 422.135 169.608 401.67 175.134 380.321C177.509 371.149 178.317 360.512 183.712 352.382C195.939 335.353 231.8 337.56 250.842 340.548C263.592 342.72 266.229 356.453 269.124 366.613C271.535 375.057 273.114 383.594 274.439 392.247C277.593 394.242 281.151 395.862 284.545 397.273C321.515 408.183 328.013 428.407 342.134 459.649C365.985 505.059 430.703 522.838 440.479 576.577C446.778 612.058 428.866 645.436 410.4 674.931C393.202 707.147 369.193 722.61 330.957 714.999C295.093 707.257 260.628 694.307 225.394 684.299C208.331 680.263 191.293 669.76 173.342 673.421C136.357 681.415 98.3553 685.175 60.4487 684.136C7.23021 686.208 7.23856 637.054 12.7007 598.989C16.5259 539.752 47.5756 501.714 106.551 484.498Z" fill="white"/>
<path fill-rule="evenodd" clip-rule="evenodd" d="M102.996 570.214C98.5472 573.045 94.8084 577.335 91.8045 581.853C104.341 580.597 116.855 579.151 129.338 577.504C127.704 576.497 126.056 575.514 124.369 574.588C118.21 571.248 109.87 565.841 102.996 570.214ZM311.256 605.872C313.553 605.007 314.442 601.635 315.337 599.704C318.144 593.647 320.705 587.487 323.37 581.368C313.251 578.594 303.411 575.514 292.93 574.036C281.658 572.445 270.221 572.06 258.846 572.418C235.806 573.141 212.977 576.765 190.327 580.65C167.698 584.531 145.076 588.259 122.289 591.186C99.9671 594.054 77.5755 596.151 55.1395 597.993C50.7798 598.352 43.5136 599.86 40.0086 596.558C37.233 593.944 37.1411 589.124 40.6155 586.997C42.7786 585.672 45.9134 585.653 48.3828 585.348C51.4953 584.962 54.6217 584.705 57.7537 584.507C59.0287 584.424 60.3038 584.349 61.5816 584.276C51.3366 580.559 40.6378 578.532 29.5325 579.097C28.9033 582.769 26.0748 586.545 24.5241 589.573C21.8209 594.86 19.7134 600.21 18.3298 605.957C15.4372 617.973 15.3092 630.442 16.1276 642.697C16.8765 652.916 18.4913 664.217 26.8181 671.453C33.1238 676.932 42.0214 678.959 50.2731 679.599C59.8667 680.338 69.6078 679.548 79.1207 678.311C92.4615 676.573 105.866 674.278 118.945 671.201C144.28 665.242 168.561 655.762 190.964 642.908C201.888 636.639 212.314 629.585 223.389 623.557C234.672 617.411 246.683 612.644 259.291 609.682C273.4 606.37 288.153 604.956 302.654 605.773C305.172 605.915 308.808 606.793 311.256 605.872ZM327.609 599.72C326.126 604.351 324.991 609.637 321.826 613.528C318.692 617.384 313.962 618.745 309.063 619.088C303.155 619.5 297.178 619.235 291.257 619.446C279.116 619.883 267.139 621.779 255.53 625.26C244.714 628.506 234.672 633.567 224.998 639.18C216.053 644.373 207.373 649.949 198.425 655.125C200.805 656.175 203.161 657.313 205.527 658.301C210.494 660.377 215.488 662.377 220.508 664.329C230.402 668.178 240.341 671.935 250.38 675.424C270.622 682.457 291.198 688.603 312.023 693.838C321.955 696.337 332.028 699.253 342.346 699.668C351.495 700.037 359.97 697.547 367.349 692.311C382.654 681.455 394.831 665.783 404.675 650.323C410.523 641.138 415.626 631.489 419.847 621.511C421.982 616.466 423.919 611.343 425.661 606.158C426.479 603.724 427.254 601.276 427.988 598.818C428.311 597.739 428.621 596.654 428.927 595.567C413.276 590.971 397.44 586.823 381.232 584.52C372.579 583.291 363.81 582.667 355.061 582.758C350.719 582.804 346.379 583.029 342.059 583.46C339.734 583.693 337.419 583.99 335.113 584.362C334.16 584.512 333.181 584.74 332.199 584.906C330.698 589.852 329.186 594.796 327.609 599.72ZM4.09253 580.051C3.24898 578.409 2.89541 576.792 2.59196 575.005C2.36089 573.642 1.74841 571.722 2.28572 569.952C2.88427 567.97 4.51851 566.197 5.69334 564.505C6.98789 562.636 8.28241 560.766 9.57696 558.895C12.1633 555.153 14.744 551.407 17.3192 547.66C27.8399 532.356 38.2881 517.006 48.7531 501.666C58.0404 488.054 67.1718 474.319 76.7404 460.889C84.9252 449.405 93.8423 438.11 105.045 429.179C119.207 417.886 136.07 412.567 153.687 408.416C155.61 406.493 158.18 405.444 160.925 405.658C164.806 401.421 167.89 398.465 169.288 393.077C169.959 390.498 169.75 383.249 172.359 381.722C175.46 379.909 177.08 382.309 177.935 385.016C180.797 394.065 177.515 406.234 169.956 415.299C173.141 425.887 177.362 440.94 184.892 449.424C192.957 458.508 204.11 461.336 216.145 461.523C239.093 461.877 262.019 453.671 279.522 439.446C284.845 435.124 289.784 430.295 294.255 425.159C297.61 421.305 301.574 415.36 304.199 410.867C304.199 409.115 306.347 407.283 284.472 405.869C262.596 404.453 260.936 375.63 260.449 371.706C260.054 368.522 258.375 363.576 260.708 360.979C261.696 359.875 263.729 359.698 264.984 360.448C267.351 361.862 268.127 365.48 268.871 367.936C269.915 371.374 273.322 392.729 279.778 395.2C282.799 396.357 286.268 396.379 289.464 396.593C293.412 396.861 297.368 397.054 301.301 397.495C302.752 397.659 304.334 398.111 305.765 398.122C306.696 398.133 307.656 397.696 308.556 397.391C311.594 396.357 314.629 397.134 317.757 397.538C345.422 401.116 373.908 409.281 397.505 423.973C418.303 436.923 432.956 455.546 442.625 477.321C452.49 499.545 458.145 523.575 462.884 547.229C464.471 555.156 465.858 563.12 467.049 571.109C468.2 578.829 469.64 586.724 469.984 594.522C470.121 597.607 469.354 600.476 468.175 603.293C466.847 606.466 463.708 607.717 460.697 609.198C454.088 612.451 447.116 614.974 439.933 616.76C435.544 624.443 431.851 632.427 428.883 640.71C429.984 642.809 430.007 645.945 430.219 647.986C430.744 653.066 430.969 658.173 431.016 663.277C431.111 673.507 430.471 683.729 429.97 693.942C429.462 704.301 427.773 745.177 427.498 750.169C427.284 754.047 427.572 759.47 425.449 762.914C422.187 768.205 414.136 768.026 410.408 763.736C317.757 782.902 143.603 777.128 73.4608 767.485C64.335 766.232 67.1997 767.622 64.8806 765.404C63.1379 763.739 61.6568 760.884 61.1751 758.591C60.5293 755.531 61.5705 752.762 63.3912 750.284C65.3038 747.681 65.6546 743.464 66.3645 740.368C68.046 733.049 68.8812 700.908 69.6691 697.346C69.9113 696.235 70.1507 695.062 70.4347 693.889C57.5699 695.062 44.1623 695.062 31.9239 690.919C24.9807 688.57 18.5079 684.883 13.5246 679.615C7.49176 673.239 4.13708 665.21 2.40823 656.831C0.181052 646.025 -0.28943 634.834 0.147655 623.849C0.754561 610.869 2.99287 597.704 8.5469 585.784C6.71783 584.151 5.18663 582.182 4.09253 580.051Z" fill="#003366"/>
<path fill-rule="evenodd" clip-rule="evenodd" d="M128.743 199.637C148.138 173.202 196.875 170.224 227.674 170.392C288.504 169.904 301.24 237.187 304.417 284.335C310.905 285.395 317.215 287.572 321.495 292.478C326.709 298.453 328.509 308.709 323.622 315.391C320.376 319.828 315.25 321.309 309.888 321.558C292.131 319.928 288.49 335.157 279.745 346.579C257.304 375.753 218.426 385.217 182.768 385.361C170.655 385.672 156.064 386.548 148.308 375.581C123.812 334.718 123.278 280.524 121.769 234.217C121.56 222.362 121.613 209.812 128.743 199.637Z" fill="white"/>
<path fill-rule="evenodd" clip-rule="evenodd" d="M86.885 222.567C86.64 223.015 86.4563 223.511 86.3561 224.05C86.0387 225.762 86.6929 227.071 87.5532 228.343C87.4418 229.229 87.3778 230.088 87.3304 230.844C87.0548 235.086 88.0654 240.902 91.9518 242.634C92.0131 242.704 92.0743 242.774 92.1384 242.843C92.439 243.313 92.8956 243.72 93.4997 244.016C93.6473 244.116 93.8004 244.211 93.9507 244.293C93.9925 244.326 94.0343 244.355 94.076 244.385C94.1094 244.406 94.14 244.428 94.1707 244.451C94.0872 244.369 94.0092 244.283 93.9284 244.2C96.0805 245.025 98.1573 245.196 100.373 244.945C101.743 245.421 103.118 245.777 104.277 246.053C107.896 246.913 112.559 247.601 116.086 246.135C117.113 245.709 117.965 245.143 118.606 244.469C118.553 247.095 118.472 249.721 118.355 252.347C118.113 258.986 118.127 265.62 118.18 272.265C118.238 279.742 118.455 287.224 118.873 294.696C119.068 298.448 119.38 302.194 119.797 305.93C120.148 309.569 120.56 313.203 121.036 316.824C122.161 324.274 124.012 331.778 126.273 338.979C127.253 342.101 128.33 345.267 129.552 348.357C130.07 349.776 130.618 351.18 131.211 352.572C134.346 359.867 138.252 366.91 143.528 372.989C146.409 376.304 149.591 379.288 153.144 381.794C155.997 383.934 159.085 385.744 162.478 387.172C169.772 390.241 177.913 390.929 185.8 390.816C188.809 390.779 191.997 390.267 194.981 389.788L195.162 389.759C197.492 389.392 199.85 388.899 202.186 388.321C204.257 387.857 206.304 387.319 208.319 386.69C210.75 386.074 213.08 385.185 215.296 384.036L219.224 382.617C220.867 382.022 222.459 381.315 224.007 380.504L228.278 378.586C230.048 377.764 231.771 376.864 233.453 375.873C233.628 375.785 233.829 375.632 233.907 375.461C234.088 375.365 234.271 375.271 234.452 375.174C234.708 375.043 234.965 374.909 235.218 374.77C235.288 374.738 235.235 374.54 235.14 374.347C235.218 374.194 235.204 374.023 234.992 373.87C234.834 373.752 234.583 373.787 234.316 373.865C234.341 373.849 234.358 373.833 234.377 373.814C234.669 373.661 234.959 373.514 235.246 373.361C235.541 373.209 235.588 372.812 235.313 372.604C235.235 372.547 235.146 372.518 235.059 372.512C235.062 372.512 235.068 372.51 235.07 372.507C235.073 372.507 235.073 372.507 235.076 372.507C235.129 372.472 235.087 372.314 235.012 372.14C235.159 371.958 235.204 371.739 234.948 371.546C234.592 371.278 233.795 371.714 233.425 371.921C233.397 371.937 233.369 371.95 233.347 371.964C233.116 372.087 232.882 372.207 232.651 372.325C232.509 372.397 232.37 372.47 232.228 372.542C232.206 372.491 232.158 372.446 232.083 372.4C232.629 372.121 233.169 371.84 233.709 371.556H233.712C234.046 371.385 234.483 371.029 234.04 370.697C233.687 370.424 232.776 370.887 232.342 371.125C232.289 371.085 232.228 371.069 232.158 371.058C232.234 371.018 232.311 370.978 232.389 370.938C232.506 370.876 232.623 370.817 232.735 370.753C233.264 370.469 232.904 369.585 232.359 369.88C232.295 369.92 232.228 369.955 232.164 369.995C231.791 369.963 231.273 370.242 231.006 370.386L230.964 370.408C229.124 371.522 227.206 372.496 225.218 373.335C223.876 373.945 222.531 374.55 221.178 375.14C219.848 375.772 218.478 376.321 217.072 376.787C213.536 378.109 209.967 379.344 206.362 380.488C201.309 381.818 196.081 382.887 190.833 383.307C190.151 383.358 189.469 383.401 188.787 383.425C188.044 383.42 187.297 383.415 186.554 383.412C185.805 383.406 185.059 383.401 184.31 383.396C181.671 383.133 179.032 382.876 176.395 382.619L175.619 382.542C174.608 382.405 173.62 382.236 172.643 382.038C172.13 381.92 171.618 381.794 171.114 381.652C170.994 381.639 170.878 381.618 170.761 381.599C170.702 381.588 170.644 381.577 170.585 381.569C169.344 381.251 168.124 380.873 166.908 380.431C166.142 380.131 165.385 379.813 164.63 379.481C162.144 378.364 159.697 376.894 157.392 375.207C155.947 373.822 154.502 372.44 153.06 371.058C151.615 369.676 150.17 368.292 148.728 366.91L146.086 363.445C142.676 358.753 139.975 353.523 137.734 348.186L134.171 338.304C133.801 337.115 133.447 335.926 133.113 334.732C132.436 332.062 131.76 329.389 131.083 326.724C130.861 325.744 130.641 324.772 130.429 323.797C129.129 317.737 128.414 311.583 127.796 305.432C126.665 294.235 126.359 283.006 126.278 271.767C126.225 265.048 126.284 258.33 126.426 251.617C126.507 247.723 126.565 243.829 126.623 239.935C126.701 235.803 126.782 231.665 126.896 227.534C126.902 227.443 126.866 227.364 126.818 227.296C126.829 226.81 126.835 226.323 126.843 225.83C126.849 225.508 126.718 225.366 126.532 225.338C126.565 222.389 126.59 219.446 126.596 216.503C126.596 216.31 126.501 216.186 126.378 216.112V215.365C126.888 213.316 127.584 211.307 128.483 209.394C128.789 208.703 129.129 208.03 129.508 207.373C129.97 206.388 130.577 205.494 131.317 204.674C131.935 203.672 132.695 202.783 133.578 201.991C133.756 201.866 133.937 201.742 134.118 201.617C134.299 201.493 134.48 201.368 134.658 201.244C134.959 201.091 135.399 200.825 135.788 200.519C136.139 200.313 136.487 200.105 136.835 199.897C137.183 199.689 137.531 199.481 137.882 199.274C138.288 199.07 138.024 198.561 137.734 198.425V198.408C137.798 198.38 137.871 198.346 137.946 198.283C138.795 197.514 139.675 196.789 140.593 196.11C140.758 196.172 140.953 196.15 141.1 196.031C141.64 195.544 142.194 195.074 142.757 194.622C144.023 193.823 145.346 193.093 146.729 192.448C148.945 191.441 151.214 190.575 153.544 189.839C153.998 189.695 154.455 189.566 154.909 189.437L155.056 189.395C155.332 189.382 155.605 189.369 155.88 189.356C156.32 189.334 156.763 189.313 157.203 189.294C183.854 188.169 210.577 188.642 237.167 190.706C243.717 191.215 250.26 191.821 256.791 192.523C258.024 192.656 259.308 192.759 260.616 192.864C265.418 193.25 270.56 193.663 274.711 195.654C274.937 195.761 275.148 195.875 275.357 195.992C274.998 198.2 274.138 200.363 273.303 202.464C273.177 202.783 273.049 203.101 272.927 203.418C271.479 207.117 270.179 210.888 270.31 214.894C270.399 217.687 271.023 220.374 271.922 222.998C272.381 226.741 273.595 230.356 274.881 233.908C281.215 251.382 284.661 269.274 284.308 287.824C284.299 288.319 284.416 288.753 284.622 289.123L284.611 289.195C284.5 289.982 284.386 290.77 284.255 291.554C283.726 294.68 288.01 296.236 289.489 294.163C289.586 294.257 289.725 294.321 289.851 294.332C290.229 294.366 290.845 293.772 291.023 293.501C291.251 293.092 291.493 292.695 291.752 292.318C291.786 292.302 291.816 292.288 291.847 292.278C291.769 292.433 291.688 292.588 291.61 292.743C291.529 292.904 291.449 293.068 291.368 293.223C291.109 293.721 292.106 293.965 292.398 293.507C292.662 293.105 292.927 292.719 293.191 292.353C293.345 292.46 293.517 292.486 293.629 292.312C294.575 290.807 295.669 289.517 296.869 288.419C298.757 286.935 300.82 286.035 303.168 285.508C305.014 285.253 306.908 285.242 308.738 285.446C310.837 285.684 313.049 286.188 314.948 287.109C316.496 288.135 318.048 289.16 319.601 290.183C319.983 290.569 320.348 290.971 320.689 291.388C321.765 292.73 322.63 294.163 323.342 295.684C323.371 295.78 323.401 295.877 323.43 295.968C323.865 297.248 324.148 298.56 324.271 299.907C324.28 300.759 324.287 301.61 324.295 302.459C324.302 303.311 324.309 304.16 324.318 305.011C324.083 307.226 323.495 309.376 322.595 311.42C322.171 312.625 321.507 313.701 320.607 314.652C320.124 315.455 319.577 316.184 318.966 316.864C317.725 317.657 316.372 318.332 314.931 318.862H314.93C314.577 318.953 314.225 319.044 313.866 319.111C312.014 319.796 310.096 320.163 308.114 320.214C305.609 320.38 303.156 320.169 300.755 319.588C299.274 319.333 297.838 318.918 296.451 318.348C295.121 317.702 293.868 316.926 292.699 316.02C292.568 315.943 292.376 315.988 292.164 316.09C291.905 315.908 291.646 315.731 291.393 315.533C291.276 315.455 291.17 315.552 291.117 315.654L291.045 315.603C290.58 315.297 289.305 316.253 289.881 316.819C289.634 316.966 289.386 317.143 289.163 317.322C288.141 317.362 286.076 319.172 286.463 319.456C287.039 319.938 287.646 320.38 288.264 320.798C287.715 321.189 287 321.794 287.334 322.038C287.935 322.587 288.587 323.061 289.28 323.471C289.75 323.813 290.235 324.143 290.739 324.443C291.287 324.753 291.847 325.021 292.423 325.27C291.415 327.142 290.458 329.033 289.564 330.958C288.968 332.321 288.28 333.642 287.487 334.908C286.476 336.839 285.263 338.649 283.846 340.337C282.693 342.203 281.34 343.92 279.795 345.486C277.882 347.58 275.831 349.551 273.648 351.372C272.777 351.967 271.888 352.545 270.967 353.076C268.606 354.787 266.095 356.252 263.431 357.473C263.119 357.639 262.874 358.001 263.236 358.284C263.25 358.29 263.261 358.29 263.272 358.3C262.401 358.777 261.527 359.246 260.644 359.709L260.613 359.725C260.257 359.91 259.6 360.253 260.115 360.654C260.455 360.928 261.507 360.44 262.136 360.124C262.097 360.146 262.053 360.167 262.011 360.191C261.961 360.215 261.911 360.242 261.861 360.271C261.852 360.274 261.841 360.279 261.827 360.288C261.568 360.421 260.58 360.93 261.237 361.26C261.585 361.319 261.913 361.26 262.231 361.096C262.562 360.978 262.891 360.847 263.214 360.711C263.202 360.812 263.261 360.909 263.431 360.989C263.567 361.011 263.695 361.011 263.826 361C263.108 361.391 262.39 361.776 261.666 362.154C261.454 362.264 260.455 362.794 261.114 363.123C261.437 363.185 261.749 363.134 262.05 362.976C262.596 362.778 263.138 362.545 263.662 362.291C263.784 362.224 263.907 362.159 264.032 362.092C264.127 362.092 264.219 362.082 264.313 362.066C263.737 362.366 263.155 362.652 262.568 362.936C262.22 363.118 261.638 363.485 262.136 363.86C262.484 364.114 263.42 363.654 263.974 363.354C264.007 363.394 264.049 363.439 264.107 363.485C264.469 363.747 265.327 363.273 265.758 363.032C265.819 362.998 265.872 362.968 265.914 362.947C268.832 361.442 271.649 359.886 274.361 358.102C276.017 357.079 277.635 356.003 279.219 354.83C282.248 352.578 284.998 349.959 287.523 347.195C289.247 345.304 290.182 344.241 291.852 341.949C294.533 338.258 296.557 334.41 298.503 330.329C298.534 330.267 298.475 330.109 298.386 329.951C298.787 329.006 299.174 328.047 299.561 327.059C300.575 327.188 301.591 327.279 302.598 327.335C304.967 327.466 307.267 327.263 309.496 326.791C312.196 326.457 314.866 325.723 317.231 324.569C318.648 323.883 320.013 323.152 321.307 322.338C322.465 321.743 323.583 321.063 324.653 320.27C329.212 316.92 331.688 311.72 332.293 306.321C332.758 303.943 332.858 301.498 332.582 299.139C332.382 297.422 331.982 295.724 331.4 294.088C330.323 290.462 328.318 287.104 325.412 284.562C324.924 284.083 324.412 283.625 323.865 283.194C322.248 281.919 320.413 280.896 318.46 280.149C318.083 279.972 317.701 279.809 317.319 279.656L317.784 278.625C317.948 278.671 318.519 278.58 318.589 278.39C318.705 278.087 318.816 277.779 318.926 277.474C318.996 277.281 319.066 277.091 319.136 276.901C319.242 276.962 319.377 276.997 319.524 277.002V277.573C319.519 277.736 319.842 278.756 320.019 278.223C320.13 277.926 320.235 277.624 320.34 277.324C320.406 277.131 320.474 276.938 320.542 276.748C320.689 276.657 320.801 276.55 320.842 276.424H320.842C320.86 276.373 320.877 276.322 320.901 276.271C320.91 276.266 320.922 276.266 320.933 276.263C320.936 276.263 320.939 276.261 320.942 276.261V276.435C320.936 276.544 321.23 277.358 321.283 277.2C322.301 274.506 323.13 271.753 323.777 268.958C324.218 267.421 324.565 265.863 324.83 264.284C325.118 262.863 325.371 261.437 325.589 259.999L325.641 259.643C325.644 259.628 325.647 259.616 325.65 259.603C325.653 259.59 325.656 259.578 325.659 259.563C325.677 259.41 325.694 259.252 325.718 259.099C325.953 257.475 326.147 255.845 326.294 254.203C326.606 250.83 326.729 247.44 326.694 244.055C326.742 244.073 326.787 244.095 326.834 244.117C326.861 244.131 326.889 244.144 326.918 244.157C328.446 244.783 330.06 245.295 331.703 245.702C334.529 249.633 339.041 252.292 344.448 252.572C346.279 252.667 348.199 252.452 349.976 251.955C350.161 251.995 350.351 252.028 350.549 252.053C351.478 252.17 352.225 251.979 352.998 251.781C353.432 251.67 353.873 251.557 354.36 251.495C354.535 251.472 354.709 251.451 354.88 251.43C356.823 251.189 358.48 250.984 359.77 249.871C360.204 249.88 360.618 249.82 361.011 249.707C364.733 250.565 368.687 248.673 369.995 244.706C372.227 243.447 374.006 241.58 375.202 239.413C377.505 236.572 379.347 233.089 380.489 229.428C380.496 229.414 380.503 229.401 380.511 229.387C380.522 229.367 380.533 229.346 380.543 229.325C381.122 228.116 381.398 226.819 381.422 225.518C382.038 221.813 381.876 218.104 380.703 214.843C380.753 213.075 380.321 211.233 379.531 209.562C378.573 207.535 377.112 205.205 375.216 203.853C375.211 201.776 374.284 199.49 373.068 197.94C370.642 194.844 367.123 193.208 363.316 192.972C361.379 188.195 355.512 187.08 350.452 188.669C348.35 186.603 345.271 185.615 342.198 185.967C339.599 186.264 337.378 187.46 335.54 189.108C335.055 189.241 334.572 189.38 334.09 189.524C332.48 188.844 330.602 188.69 328.884 189.117C325.906 189.855 323.963 192.026 322.619 194.517C322.191 194.801 321.772 195.094 321.363 195.4C320.914 195.594 320.507 195.853 320.137 196.157C319.599 196.433 319.143 196.886 318.865 197.544C318.106 198.297 317.4 199.093 316.775 199.947C316.308 198.906 315.825 197.873 315.327 196.846C314.516 197.081 313.536 196.777 313.128 195.735L313.024 195.469C310.415 188.807 305.77 176.946 301.39 171.441C306.571 174.835 312.896 176.624 319.179 176.444C319.447 176.436 319.719 176.425 319.992 176.411C323.369 176.971 326.8 177.024 329.95 176.416C332.071 175.675 334.137 174.792 336.14 173.793C336.627 173.55 337.11 173.294 337.591 173.036C337.742 172.913 337.885 172.781 338.027 172.648C338.084 172.596 338.14 172.544 338.196 172.493C338.61 172.522 339.044 172.491 339.505 172.373C341.238 171.932 342.842 170.822 343.848 169.396C344.035 169.13 344.185 168.857 344.32 168.581C345.411 167.555 346.356 166.392 347.05 165.031C347.868 163.441 348.368 161.652 348.421 159.864C348.762 158.109 348.739 156.304 348.103 154.629C348.059 154.514 348.01 154.403 347.96 154.29C347.931 154.224 347.902 154.158 347.874 154.091C347.86 154.045 347.847 153.997 347.834 153.95C347.816 153.881 347.798 153.812 347.774 153.746C347.588 153.148 347.352 152.616 347.065 152.113C346.958 151.595 346.784 151.081 346.538 150.582C346.511 150.34 346.476 150.098 346.436 149.858C348.305 146.464 347.643 142.027 344.845 139.269C345.232 137.486 344.838 135.596 343.71 134.014C342.882 132.852 341.731 131.934 340.427 131.297C340.291 131.231 339.931 131.117 339.501 130.987C339.019 130.576 338.51 130.188 337.953 129.846C337.82 126.529 334.38 124.616 331.401 122.96C331.257 122.88 331.114 122.8 330.973 122.721C330.003 122.179 329.299 121.4 328.595 120.621C327.855 119.803 327.115 118.985 326.066 118.439C324.231 117.486 321.975 117.266 319.858 117.06C319.39 117.015 318.929 116.97 318.481 116.918C312.642 116.241 306.425 115.718 300.558 116.33C297.298 116.67 294.6 118.184 293.487 120.664C290.683 120.982 288.186 122.929 286.209 124.93C283.743 127.428 281.641 130.086 280.917 133.369C280.435 133.62 279.998 133.926 279.6 134.273C279.617 136.581 279.929 138.893 280.591 141.071C280.396 142.374 280.803 143.617 281.493 144.745C281.387 145.812 281.463 146.863 281.696 147.911C280.355 150.2 281.61 153.66 283.489 155.93L283.503 157.21C283.392 157.154 283.28 157.088 283.18 157.005C277.777 152.58 272.278 151.361 266.337 150.043C262.907 149.283 259.33 148.489 255.541 147.027C246.201 145.292 236.668 144.188 227.103 143.821C227.231 143.803 227.356 143.79 227.481 143.77C232.303 143.01 236.933 141.102 240.914 138.361C241.969 138.104 242.969 137.646 243.862 136.881C244.731 136.137 245.335 135.279 245.68 134.359C245.836 134.196 245.992 134.032 246.145 133.866C249.135 133.16 251.412 130.671 251.031 127.4C252.924 125.244 253.62 122.582 252.98 119.81C254.038 118.092 254.129 115.924 253.339 114.109C255.001 112.167 255.132 109.409 253.829 107.211C255.018 105.584 255.279 103.428 253.812 101.5C253.119 100.59 252.158 100.017 251.114 99.7391C250.819 98.6904 250.218 97.7164 249.274 96.9642C248.79 96.5775 248.28 96.2907 247.763 96.0767C247.568 94.994 246.93 93.9672 245.708 93.1596C245.151 92.7932 244.583 92.5567 244.021 92.4255C243.486 91.1519 242.551 90.0352 241.24 89.3102C239.656 88.4356 237.813 88.3196 236.134 88.7781C233.94 85.5894 229.129 84.3533 225.794 86.7185C223.016 85.0646 219.522 85.4132 217.027 87.4244C214.01 85.7075 210.26 86.4003 207.893 88.7939C204.099 86.7994 199.093 88.2728 197.064 92.0519C193.236 91.6433 189.628 94.0543 188.606 97.5442C188.442 97.6738 188.277 97.8072 188.113 97.9406L188.071 97.9756C185.777 98.0814 183.598 98.9461 182.311 100.999C181.671 102.023 181.373 103.228 181.418 104.408C180.045 105.121 178.94 106.291 178.464 107.807C178.018 109.229 178.188 110.636 178.773 111.861C176.863 113.815 176.359 116.862 177.709 119.316C177.15 120.24 176.86 121.332 176.905 122.467C176.974 124.147 177.782 125.502 178.884 126.658C177.501 129.063 178.041 132.149 180.29 133.836C181.585 138.248 184.859 141.184 189.873 142.985C192.392 143.889 195.029 144.586 197.715 145.098C186.966 146.489 176.393 148.936 166.234 152.583C165.68 152.782 165.212 152.704 164.853 152.473C164.756 152.522 164.658 152.57 164.561 152.618C164.435 152.68 164.307 152.741 164.185 152.806C161.384 154.283 158.645 155.885 155.975 157.6C155.975 157.317 155.969 157.034 155.955 156.745C156.008 154.416 155.752 152.122 155.109 149.911C155.953 148.808 156.582 147.55 156.924 146.254C157.779 143.02 156.153 138.418 153.233 137.313C152.208 134.581 149.881 132.605 147.027 131.827C146.802 131.631 146.562 131.44 146.292 131.263C145.691 130.866 145.034 130.595 144.36 130.437C144.009 128.957 143.152 127.595 141.727 126.639C139.719 125.289 137.345 125.143 135.257 125.879C134.858 125.75 134.458 125.639 134.051 125.542C130.691 122.79 125.454 122.993 122.498 126.213C120.468 125.32 118.077 125.281 116 126.482C114.338 127.443 113.302 128.993 112.898 130.693C109.753 130.786 106.874 132.795 105.966 135.794C103.065 136.11 100.694 138.293 100.19 141.042C98.3411 141.29 96.6317 142.126 95.5933 143.79C95.1117 144.559 94.8527 145.401 94.7831 146.243C93.8477 146.675 93.0098 147.329 92.3778 148.183C91.267 149.679 91.0526 151.427 91.4619 153.071C91.4229 153.146 91.3839 153.219 91.3449 153.293C91.2865 153.4 91.228 153.506 91.1751 153.615C90.8744 154.233 90.6322 154.896 90.4151 155.569C89.4407 156.923 88.9897 158.577 89.0788 160.239C88.8728 160.942 88.6723 161.646 88.5053 162.354C87.8483 165.133 87.6005 168.093 88.0515 170.923C88.277 172.293 88.5999 173.64 89.0593 174.947C89.1066 175.197 89.1818 175.429 89.2709 175.649C89.5242 176.68 89.8472 177.693 90.2592 178.683C91.2475 179.945 92.2804 181.174 93.3689 182.362C94.2876 183.687 95.3344 184.909 96.5176 186.03C97.3695 186.839 98.3049 187.592 99.2987 188.271C101.273 189.793 103.48 190.98 105.836 191.752C106.256 191.667 106.679 191.601 107.102 191.536C109.778 192.953 113.987 193.113 116.559 193.103C119.396 193.093 121.994 192.404 124.154 191.102C123.904 191.581 123.653 192.061 123.402 192.542C123.464 192.577 123.533 192.608 123.586 192.648C124.054 191.904 124.574 191.242 125.187 190.767C126.028 190.117 127.378 190.059 127.96 191.111C127.971 191.129 127.979 191.147 127.99 191.166C128.299 191.727 128.255 192.265 128.021 192.704C127.932 192.824 127.848 192.944 127.762 193.064C127.732 193.098 127.701 193.135 127.667 193.166L127.684 193.168C126.88 193.79 126.089 195.314 125.34 196.795C124.833 197.66 124.352 198.538 123.898 199.431C123.636 199.806 123.166 200.135 122.667 200.231C122.765 200.944 122.425 201.681 121.863 202.047C121.718 201.762 121.537 201.469 121.309 201.168C118.781 197.864 113.814 196.438 110.073 197.948C109.327 197.827 108.578 197.727 107.823 197.67C105.354 197.513 102.851 197.7 100.412 198.192C99.6551 198.629 98.9313 199.121 98.2576 199.681C97.6868 200.157 97.1579 200.655 96.6623 201.17C96.2809 201.446 95.9051 201.738 95.5376 202.042C94.0426 202.816 92.9429 204.3 92.0214 205.777C91.2892 206.773 90.6489 207.831 90.0977 208.951C87.5309 213.173 84.5743 218.416 86.885 222.567ZM292.551 304.162C291.61 305.209 290.875 306.377 290.346 307.663C290.135 308.075 290.394 308.324 290.828 308.249C291.023 308.222 291.287 308.086 291.557 307.904C291.538 307.952 291.515 307.997 291.493 308.043C291.471 308.088 291.449 308.134 291.429 308.182C291.201 308.619 291.393 308.929 291.916 308.766C291.947 308.747 291.975 308.731 292 308.715C291.73 309.178 291.482 309.655 291.27 310.153C291.039 310.592 291.245 310.898 291.763 310.729C292.036 310.582 292.292 310.413 292.54 310.225C292.509 310.29 292.479 310.354 292.448 310.418C292.367 310.59 292.284 310.761 292.211 310.938C291.975 311.385 292.248 311.618 292.704 311.516C293.1 311.307 293.464 311.058 293.804 310.769C293.84 310.742 293.874 310.715 293.904 310.686C293.921 310.673 293.935 310.657 293.951 310.643C293.798 311.013 294.088 311.238 294.469 311.165C295.012 311.064 296.028 310.185 296.276 309.722C296.293 309.692 296.304 309.666 296.323 309.636C296.61 309.449 296.922 309.189 297.159 308.94C297.345 309.2 297.71 309.392 297.874 309.076C298.37 307.78 299.141 306.672 300.193 305.737C300.792 304.893 301.521 304.176 302.376 303.581C302.833 303.206 303.31 302.85 303.798 302.51C304.663 302.132 305.563 301.843 306.504 301.65C306.61 301.618 306.719 301.594 306.827 301.57C306.91 301.549 306.992 301.53 307.074 301.509L307.143 301.498C307.537 301.428 307.926 301.359 308.321 301.305C310.021 301.08 311.727 301.04 313.432 301.187C313.738 301.198 314.032 300.97 314.161 300.71C314.544 300.729 314.92 300.745 315.303 300.78C315.932 300.802 315.796 299.947 315.32 299.862C314.72 299.754 314.12 299.674 313.532 299.607C313.544 299.556 313.55 299.5 313.538 299.455C314.614 299.404 315.685 299.425 316.767 299.535C317.237 299.556 316.679 298.718 316.42 298.673C316.359 298.662 316.298 298.654 316.236 298.643C316.179 298.635 316.121 298.627 316.061 298.616C316.073 298.6 316.079 298.59 316.085 298.571H316.114C316.761 298.6 317.202 297.609 316.426 297.473C316.333 297.457 316.241 297.443 316.15 297.43C316.051 297.417 315.953 297.401 315.855 297.382C315.891 297.288 315.896 297.202 315.861 297.122C316.197 297.117 316.526 297.117 316.861 297.117C316.773 297.111 316.696 296.932 316.616 296.744C316.529 296.544 316.439 296.335 316.326 296.319L315.808 296.252C315.796 296.043 315.467 295.555 315.326 295.526C314.208 295.346 313.114 295.221 312.032 295.18C311.926 294.945 311.774 294.626 311.626 294.626C310.397 294.61 309.215 294.621 308.039 294.739C307.992 294.706 307.945 294.688 307.903 294.696C307.835 294.709 307.769 294.725 307.704 294.741C307.584 294.768 307.467 294.795 307.345 294.824C306.692 294.915 306.039 295.047 305.374 295.231C303.804 295.679 302.234 296.386 300.875 297.264C299.592 298.091 298.317 298.951 297.198 299.982C296.805 300.303 296.435 300.654 296.081 301.016C295.51 301.468 294.959 301.934 294.428 302.392C293.782 302.963 293.152 303.552 292.551 304.162Z" fill="#003366"/>
<path fill-rule="evenodd" clip-rule="evenodd" d="M168.249 342.538C172.584 343.746 177.233 343.853 181.651 342.605C185.655 341.475 189.769 338.984 192.718 335.69C195.337 332.763 197.033 329.207 196.966 325.412C196.958 324.978 196.796 324.617 196.548 324.336C196.284 324.033 195.911 323.824 195.51 323.736C195.101 323.642 194.666 323.674 194.296 323.837C193.962 323.982 193.675 324.231 193.497 324.595C193.043 325.168 192.592 325.731 192.139 326.28C188.497 330.61 184.967 333.845 179.491 335.005C176.518 335.634 173.55 335.355 170.824 334.394C167.91 333.366 165.273 331.558 163.207 329.244C162.275 328.197 161.172 327.771 160.095 327.763C158.876 327.755 157.667 328.302 156.76 329.175C155.866 330.032 155.268 331.199 155.212 332.418C155.165 333.486 155.526 334.606 156.492 335.602C159.672 338.888 163.792 341.295 168.249 342.538ZM168.383 288.319C163.942 290.917 157.175 296.975 161.952 303.415C167.575 309.095 175.674 302.585 179.664 299.639C183.363 297.358 187.52 303.228 184.087 305.892C155.254 326.435 143.553 289 166.136 285.266C168.622 284.854 169.547 287.516 168.383 288.319ZM209.931 276.89C211.356 276.009 213.038 275.709 214.898 276.523C216.351 277.16 218.904 279.281 220.677 282.072C221.891 283.978 222.754 286.217 222.573 288.55C222.531 289.091 222.74 289.49 223.068 289.784C223.327 290.017 223.7 290.189 224.14 290.242C224.513 290.288 224.931 290.248 225.271 290.146C225.916 289.95 226.259 289.549 226.387 289.219C227.631 286.043 227.094 282.497 225.702 279.3C223.823 274.983 220.407 271.368 218.171 270.203C214.343 268.208 209.828 268.117 205.994 270.149C202.732 271.879 200.694 274.672 198.664 277.519C198.233 278.124 197.804 278.724 197.361 279.316C196.476 280.497 196.387 281.67 196.729 282.677C197.111 283.791 198.079 284.731 199.293 285.224C200.415 285.676 201.715 285.74 202.868 285.275C203.84 284.878 204.733 284.11 205.298 282.805C206.248 280.604 207.835 278.178 209.931 276.89ZM137.431 281.782C138.408 282.273 139.173 282.42 140.259 282.106C140.858 281.932 141.451 281.6 141.916 281.156C142.375 280.711 142.706 280.162 142.834 279.552C143.152 278.044 144.009 276.633 145.231 275.714C146.273 274.929 147.592 274.512 149.051 274.747C150.629 274.999 152.13 275.974 153.166 277.12C153.511 277.503 153.781 277.94 154.054 278.373C154.563 279.182 155.059 279.935 155.763 280.529C156.028 280.757 156.431 280.912 156.818 280.912C156.977 280.912 157.138 280.888 157.291 280.842C158.859 279.327 159.162 278.178 159.112 277.037C159.057 275.84 158.569 274.63 157.776 273.499C155.919 270.851 152.392 268.676 150.014 268.186C146.754 267.511 143.519 268.32 140.925 270.072C138.255 271.874 136.275 274.672 135.66 277.824C135.51 278.585 135.574 279.404 135.874 280.114C136.167 280.81 136.679 281.405 137.431 281.782ZM202.743 248.636C204.7 250.469 207.013 250.753 209.355 251.006C210.658 251.147 211.696 251.262 212.718 251.484C215.527 252.094 218.302 253.013 220.836 254.337C223.486 255.72 226.37 257.389 228.447 259.527C228.943 260.036 229.408 260.569 229.873 261.104C230.298 261.592 230.708 262.062 231.139 262.515C231.635 263.035 232.105 263.58 232.573 264.124C232.862 264.582 232.918 264.695 232.977 264.813C233.066 264.989 233.166 265.187 233.283 265.399C233.444 265.689 233.631 266.006 233.826 266.295C234.151 266.821 234.327 266.966 234.477 267.031C234.728 267.138 234.964 267.191 235.195 267.163C235.413 267.136 235.616 267.036 235.816 266.872C236.821 266.056 237.116 264.716 237.086 263.294C237.041 261.136 236.214 258.747 235.452 257.278C233.678 253.865 231.22 250.318 228.263 247.77C224.889 244.863 221.198 242.662 216.958 241.145C214.324 240.202 211.273 239.337 208.402 239.446C206.337 239.525 204.366 240.116 202.737 241.592C201.735 242.498 201.256 243.786 201.256 245.074C201.256 246.387 201.754 247.709 202.743 248.636ZM133.452 265.426C133.578 265.622 133.75 265.757 133.942 265.838C134.143 265.923 134.365 265.948 134.58 265.913C134.794 265.878 135 265.785 135.162 265.642C135.315 265.505 135.432 265.324 135.485 265.102C136.785 259.614 139.304 255.531 144.686 252.898C147.333 251.603 150.376 250.78 153.258 250.124C154.095 249.933 154.981 249.81 155.872 249.685C158.664 249.292 161.476 248.843 163.297 246.671C164.393 245.362 164.856 243.689 164.594 242.159C164.349 240.718 163.475 239.396 161.882 238.605C157.923 236.635 153.004 238.568 149.004 240.215C148.708 240.337 148.416 240.457 148.132 240.573C144.221 242.161 140.654 244.258 137.723 247.256C135.396 249.635 133.241 253.152 132.372 256.769C131.651 259.779 131.821 262.852 133.452 265.426Z" fill="#003366"/>
<ellipse cx="212.8" cy="282.862" rx="5.27168" ry="5.29862" fill="#003366"/>
<ellipse cx="148.361" cy="279.276" rx="3.69018" ry="3.70903" fill="#003366"/>
<path d="M27.7986 2.34C27.7986 1.58 28.0386 1 28.5186 0.600001C28.9986 0.2 29.6986 0 30.6186 0V9.45H41.2686V2.34C41.2686 1.58 41.5086 1 41.9886 0.600001C42.4686 0.2 43.1686 0 44.0886 0V19.2C44.0886 19.96 43.8486 20.54 43.3686 20.94C42.8886 21.34 42.1886 21.54 41.2686 21.54V11.94H30.6186V19.2C30.6186 19.96 30.3786 20.54 29.8986 20.94C29.4186 21.34 28.7186 21.54 27.7986 21.54V2.34Z" fill="#003366"/>
<path d="M49.9571 3.75C49.3971 3.75 48.9271 3.57 48.5471 3.21C48.1671 2.85 47.9771 2.4 47.9771 1.86C47.9771 1.32 48.1671 0.880001 48.5471 0.54C48.9271 0.18 49.3971 0 49.9571 0C50.4971 0 50.9571 0.18 51.3371 0.54C51.7171 0.880001 51.9071 1.32 51.9071 1.86C51.9071 2.4 51.7171 2.85 51.3371 3.21C50.9571 3.57 50.4971 3.75 49.9571 3.75ZM48.6371 7.92C48.6371 7.26 48.8471 6.78 49.2671 6.48C49.7071 6.16 50.3671 6 51.2471 6V19.62C51.2471 20.28 51.0271 20.77 50.5871 21.09C50.1671 21.39 49.5171 21.54 48.6371 21.54V7.92Z" fill="#003366"/>
<path d="M62.926 2.1C62.926 1.58 63.1161 1.15 63.4961 0.81C63.8761 0.45 64.3561 0.27 64.9361 0.27H73.276C74.716 0.27 75.9861 0.560001 77.0861 1.14C78.2061 1.7 79.0661 2.51 79.6661 3.57C80.2861 4.61 80.596 5.82 80.596 7.2C80.596 8.6 80.2961 9.83 79.6961 10.89C79.0961 11.93 78.246 12.74 77.146 13.32C76.046 13.88 74.756 14.16 73.276 14.16H66.9461V18.57C66.9461 19.53 66.596 20.27 65.896 20.79C65.216 21.29 64.226 21.54 62.926 21.54V2.1ZM73.276 10.68C74.336 10.68 75.1561 10.37 75.7361 9.75C76.3161 9.13 76.606 8.27 76.606 7.17C76.606 6.09 76.306 5.25 75.706 4.65C75.126 4.05 74.316 3.75 73.276 3.75H66.9461V10.68H73.276Z" fill="#003366"/>
<path d="M82.1378 2.88C82.1378 1.96 82.4578 1.25 83.0978 0.750001C83.7378 0.25 84.6578 0 85.8578 0V7.8C85.5978 8.08 85.3578 8.4 85.1378 8.76L85.3178 8.88C86.6978 6.96 88.4578 6 90.5978 6C91.6178 6 92.5178 6.23 93.2978 6.69C94.0778 7.15 94.6778 7.78 95.0978 8.58C95.5378 9.38 95.7578 10.28 95.7578 11.28V19.26C95.7578 20.06 95.4478 20.64 94.8278 21C94.2078 21.36 93.2678 21.54 92.0078 21.54V11.82C92.0078 11.06 91.7778 10.44 91.3178 9.96C90.8778 9.48 90.2278 9.24 89.3678 9.24C88.3478 9.24 87.5078 9.56 86.8478 10.2C86.1878 10.82 85.8578 11.6 85.8578 12.54V19.26C85.8578 20.06 85.5478 20.64 84.9278 21C84.3078 21.36 83.3778 21.54 82.1378 21.54V2.88Z" fill="#003366"/>
<path d="M101.173 4.59C100.453 4.59 99.8535 4.38 99.3735 3.96C98.9135 3.52 98.6835 2.96 98.6835 2.28C98.6835 1.62 98.9135 1.08 99.3735 0.66C99.8535 0.22 100.453 0 101.173 0C101.893 0 102.483 0.22 102.943 0.66C103.423 1.08 103.663 1.62 103.663 2.28C103.663 2.96 103.423 3.52 102.943 3.96C102.483 4.38 101.893 4.59 101.173 4.59ZM99.2835 8.28C99.2835 7.46 99.5935 6.88 100.213 6.54C100.833 6.18 101.773 6 103.033 6V19.26C103.033 20.06 102.723 20.64 102.103 21C101.483 21.36 100.543 21.54 99.2835 21.54V8.28Z" fill="#003366"/>
<path d="M111.829 21.54C110.169 21.54 108.909 21.07 108.049 20.13C107.209 19.17 106.789 17.96 106.789 16.5V2.28C106.789 1.46 107.089 0.880001 107.689 0.54C108.309 0.18 109.259 0 110.539 0V16.35C110.539 17.03 110.689 17.53 110.989 17.85C111.289 18.15 111.769 18.3 112.429 18.3C113.169 18.3 113.909 18.11 114.649 17.73C114.849 17.91 114.999 18.14 115.099 18.42C115.219 18.68 115.279 18.95 115.279 19.23C115.279 19.83 114.979 20.37 114.379 20.85C113.779 21.31 112.929 21.54 111.829 21.54Z" fill="#003366"/>
<path d="M121.724 21.54C120.064 21.54 118.804 21.07 117.944 20.13C117.104 19.17 116.684 17.96 116.684 16.5V2.28C116.684 1.46 116.984 0.880001 117.584 0.54C118.204 0.18 119.154 0 120.434 0V16.35C120.434 17.03 120.584 17.53 120.884 17.85C121.184 18.15 121.664 18.3 122.324 18.3C123.064 18.3 123.804 18.11 124.544 17.73C124.744 17.91 124.894 18.14 124.994 18.42C125.114 18.68 125.174 18.95 125.174 19.23C125.174 19.83 124.874 20.37 124.274 20.85C123.674 21.31 122.824 21.54 121.724 21.54Z" fill="#003366"/>
<path d="M129.951 4.59C129.231 4.59 128.631 4.38 128.151 3.96C127.691 3.52 127.461 2.96 127.461 2.28C127.461 1.62 127.691 1.08 128.151 0.66C128.631 0.22 129.231 0 129.951 0C130.671 0 131.261 0.22 131.721 0.66C132.201 1.08 132.441 1.62 132.441 2.28C132.441 2.96 132.201 3.52 131.721 3.96C131.261 4.38 130.671 4.59 129.951 4.59ZM128.061 8.28C128.061 7.46 128.371 6.88 128.991 6.54C129.611 6.18 130.551 6 131.811 6V19.26C131.811 20.06 131.501 20.64 130.881 21C130.261 21.36 129.321 21.54 128.061 21.54V8.28Z" fill="#003366"/>
<path d="M135.687 8.58C135.687 7.84 135.977 7.23 136.557 6.75C137.137 6.25 137.997 6 139.137 6V7.62C138.797 8.08 138.607 8.35 138.567 8.43L138.687 8.55C139.327 7.71 140.027 7.08 140.787 6.66C141.567 6.22 142.527 6 143.667 6C144.767 6 145.737 6.23 146.577 6.69C147.437 7.13 148.107 7.76 148.587 8.58C149.067 9.4 149.307 10.34 149.307 11.4V16.14C149.307 17.22 149.037 18.17 148.497 18.99C147.977 19.81 147.257 20.44 146.337 20.88C145.417 21.32 144.377 21.54 143.217 21.54C142.477 21.54 141.707 21.39 140.907 21.09C140.127 20.77 139.467 20.34 138.927 19.8L138.807 19.95C138.947 20.15 139.167 20.36 139.467 20.58V25.02C139.467 26.7 138.207 27.54 135.687 27.54V8.58ZM142.497 18.3C143.477 18.3 144.237 18.09 144.777 17.67C145.317 17.25 145.587 16.66 145.587 15.9V11.64C145.587 10.86 145.317 10.27 144.777 9.87C144.257 9.45 143.497 9.24 142.497 9.24C141.597 9.24 140.857 9.46 140.277 9.9C139.697 10.32 139.407 10.85 139.407 11.49V16.05C139.407 16.67 139.687 17.2 140.247 17.64C140.827 18.08 141.577 18.3 142.497 18.3Z" fill="#003366"/>
<path d="M151.998 25.47C152.718 24.81 153.258 24.13 153.618 23.43C153.978 22.73 154.158 22.05 154.158 21.39C153.958 21.49 153.728 21.54 153.468 21.54C152.908 21.54 152.448 21.36 152.088 21C151.748 20.62 151.578 20.14 151.578 19.56C151.578 18.92 151.778 18.4 152.178 18C152.598 17.6 153.118 17.4 153.738 17.4C154.398 17.4 154.928 17.62 155.328 18.06C155.748 18.48 155.958 19.01 155.958 19.65C155.958 21.01 155.748 22.14 155.328 23.04C154.908 23.94 154.298 24.73 153.498 25.41C153.298 25.57 153.018 25.65 152.658 25.65C152.378 25.65 152.158 25.59 151.998 25.47Z" fill="#003366"/>
<path d="M6.27 51.54C5.63 51.54 5.1 51.4 4.68 51.12C4.26 50.82 3.97 50.41 3.81 49.89L0 36.24C0.28 36.08 0.66 36 1.14 36C1.58 36 1.95 36.1 2.25 36.3C2.55 36.5 2.74 36.79 2.82 37.17L5.34 47.13L5.04 48.42L5.19 48.48L8.46 36.87C8.54 36.61 8.69 36.4 8.91 36.24C9.13 36.08 9.4 36 9.72 36C10.04 36 10.31 36.08 10.53 36.24C10.75 36.4 10.9 36.61 10.98 36.87L13.83 47.25L13.47 48.54L13.65 48.6L16.59 37.17C16.67 36.79 16.86 36.5 17.16 36.3C17.46 36.1 17.83 36 18.27 36C18.75 36 19.13 36.08 19.41 36.24L15.6 49.89C15.46 50.41 15.16 50.82 14.7 51.12C14.24 51.4 13.69 51.54 13.05 51.54L9.45 38.58L9.33 38.61L9.63 39.72L6.27 51.54Z" fill="#003366"/>
<path d="M22.1297 32.22C22.1297 31.5 22.3497 30.95 22.7897 30.57C23.2297 30.19 23.8797 30 24.7397 30V37.89C24.4597 38.21 24.2397 38.49 24.0797 38.73L24.1997 38.85C24.8197 38.01 25.5997 37.33 26.5397 36.81C27.4797 36.27 28.4997 36 29.5997 36C31.2197 36 32.4997 36.48 33.4397 37.44C34.3797 38.4 34.8497 39.64 34.8497 41.16V49.62C34.8497 50.28 34.6297 50.77 34.1897 51.09C33.7697 51.39 33.1197 51.54 32.2397 51.54V41.43C32.2397 40.47 31.9697 39.71 31.4297 39.15C30.8897 38.59 30.0697 38.31 28.9697 38.31C28.2297 38.31 27.5297 38.47 26.8697 38.79C26.2297 39.09 25.7097 39.51 25.3097 40.05C24.9297 40.57 24.7397 41.14 24.7397 41.76V49.62C24.7397 50.28 24.5197 50.77 24.0797 51.09C23.6597 51.39 23.0097 51.54 22.1297 51.54V32.22Z" fill="#003366"/>
<path d="M44.141 51.54C42.921 51.54 41.811 51.31 40.811 50.85C39.831 50.39 39.061 49.77 38.501 48.99C37.961 48.19 37.691 47.3 37.691 46.32V41.4C37.691 40.4 37.961 39.49 38.501 38.67C39.061 37.85 39.831 37.2 40.811 36.72C41.791 36.24 42.901 36 44.141 36C45.381 36 46.491 36.24 47.471 36.72C48.471 37.2 49.241 37.85 49.781 38.67C50.341 39.49 50.621 40.4 50.621 41.4V46.32C50.621 47.3 50.341 48.19 49.781 48.99C49.221 49.77 48.451 50.39 47.471 50.85C46.491 51.31 45.381 51.54 44.141 51.54ZM44.141 49.29C45.341 49.29 46.291 49.01 46.991 48.45C47.711 47.87 48.071 47.12 48.071 46.2V41.49C48.071 40.53 47.711 39.75 46.991 39.15C46.291 38.55 45.341 38.25 44.141 38.25C42.961 38.25 42.011 38.55 41.291 39.15C40.571 39.75 40.211 40.53 40.211 41.49V46.2C40.211 47.12 40.561 47.87 41.261 48.45C41.981 49.01 42.941 49.29 44.141 49.29Z" fill="#003366"/>
<path d="M62.6899 57.51C61.4499 57.51 60.7999 56.79 60.7399 55.35C61.3399 55.43 61.7699 55.47 62.0299 55.47C62.9099 55.47 63.6099 55.21 64.1299 54.69C64.6699 54.17 65.2199 53.27 65.7799 51.99L66.3799 50.64L60.4699 36.21C60.6099 36.15 60.7899 36.1 61.0099 36.06C61.2499 36.02 61.4499 36 61.6099 36C62.0299 36.02 62.4099 36.14 62.7499 36.36C63.0899 36.56 63.3299 36.83 63.4699 37.17L67.4899 47.43L67.0699 48.63L67.2499 48.72L71.8099 37.17C71.9499 36.81 72.1799 36.53 72.4999 36.33C72.8399 36.11 73.2199 36 73.6399 36C73.8199 36 74.0199 36.02 74.2399 36.06C74.4799 36.1 74.6599 36.15 74.7799 36.21L68.0299 52.74C67.3699 54.34 66.6299 55.53 65.8099 56.31C64.9899 57.11 63.9499 57.51 62.6899 57.51Z" fill="#003366"/>
<path d="M81.6785 51.54C80.4585 51.54 79.3485 51.31 78.3485 50.85C77.3685 50.39 76.5985 49.77 76.0385 48.99C75.4985 48.19 75.2285 47.3 75.2285 46.32V41.4C75.2285 40.4 75.4985 39.49 76.0385 38.67C76.5985 37.85 77.3685 37.2 78.3485 36.72C79.3285 36.24 80.4385 36 81.6785 36C82.9185 36 84.0285 36.24 85.0085 36.72C86.0085 37.2 86.7785 37.85 87.3185 38.67C87.8785 39.49 88.1585 40.4 88.1585 41.4V46.32C88.1585 47.3 87.8785 48.19 87.3185 48.99C86.7585 49.77 85.9885 50.39 85.0085 50.85C84.0285 51.31 82.9185 51.54 81.6785 51.54ZM81.6785 49.29C82.8785 49.29 83.8285 49.01 84.5285 48.45C85.2485 47.87 85.6085 47.12 85.6085 46.2V41.49C85.6085 40.53 85.2485 39.75 84.5285 39.15C83.8285 38.55 82.8785 38.25 81.6785 38.25C80.4985 38.25 79.5485 38.55 78.8285 39.15C78.1085 39.75 77.7485 40.53 77.7485 41.49V46.2C77.7485 47.12 78.0985 47.87 78.7985 48.45C79.5185 49.01 80.4785 49.29 81.6785 49.29Z" fill="#003366"/>
<path d="M103.304 49.32C103.304 50.8 102.464 51.54 100.784 51.54V49.62C100.964 49.44 101.174 49.17 101.414 48.81L101.294 48.69C100.694 49.55 99.9336 50.24 99.0136 50.76C98.1136 51.28 97.1236 51.54 96.0436 51.54C94.9636 51.54 94.0036 51.31 93.1636 50.85C92.3436 50.39 91.7036 49.75 91.2436 48.93C90.8036 48.11 90.5836 47.19 90.5836 46.17V37.92C90.5836 37.26 90.8036 36.78 91.2436 36.48C91.6836 36.16 92.3436 36 93.2236 36V46.05C93.2236 47.01 93.5036 47.78 94.0636 48.36C94.6436 48.94 95.4936 49.23 96.6136 49.23C97.3536 49.23 98.0336 49.08 98.6536 48.78C99.2736 48.46 99.7636 48.04 100.124 47.52C100.504 46.98 100.694 46.4 100.694 45.78V37.92C100.694 37.26 100.904 36.78 101.324 36.48C101.764 36.16 102.424 36 103.304 36V49.32Z" fill="#003366"/>
<path d="M120.149 51.54C119.509 51.54 118.979 51.4 118.559 51.12C118.139 50.82 117.849 50.41 117.689 49.89L113.879 36.24C114.159 36.08 114.539 36 115.019 36C115.459 36 115.829 36.1 116.129 36.3C116.429 36.5 116.619 36.79 116.699 37.17L119.219 47.13L118.919 48.42L119.069 48.48L122.339 36.87C122.419 36.61 122.569 36.4 122.789 36.24C123.009 36.08 123.279 36 123.599 36C123.919 36 124.189 36.08 124.409 36.24C124.629 36.4 124.779 36.61 124.859 36.87L127.709 47.25L127.349 48.54L127.529 48.6L130.469 37.17C130.549 36.79 130.739 36.5 131.039 36.3C131.339 36.1 131.709 36 132.149 36C132.629 36 133.009 36.08 133.289 36.24L129.479 49.89C129.339 50.41 129.039 50.82 128.579 51.12C128.119 51.4 127.569 51.54 126.929 51.54L123.329 38.58L123.209 38.61L123.509 39.72L120.149 51.54Z" fill="#003366"/>
<path d="M140.081 51.54C138.361 51.54 136.971 51.08 135.911 50.16C134.871 49.24 134.351 48.03 134.351 46.53C134.351 45.01 134.901 43.79 136.001 42.87C137.101 41.93 138.551 41.46 140.351 41.46C142.271 41.46 143.851 42.14 145.091 43.5L145.211 43.38C144.991 43.14 144.741 42.89 144.461 42.63V41.37C144.461 40.35 144.141 39.56 143.501 39C142.861 38.44 141.951 38.16 140.771 38.16C138.671 38.16 137.171 38.99 136.271 40.65C135.951 40.49 135.681 40.28 135.461 40.02C135.261 39.74 135.161 39.46 135.161 39.18C135.161 38.64 135.431 38.13 135.971 37.65C136.511 37.15 137.221 36.75 138.101 36.45C139.001 36.15 139.941 36 140.921 36C142.821 36 144.311 36.47 145.391 37.41C146.491 38.35 147.041 39.65 147.041 41.31V49.53C147.041 50.23 146.841 50.74 146.441 51.06C146.041 51.38 145.411 51.54 144.551 51.54V50.13C144.971 49.69 145.201 49.43 145.241 49.35L145.121 49.23C143.821 50.77 142.141 51.54 140.081 51.54ZM140.531 49.47C141.771 49.47 142.741 49.21 143.441 48.69C144.161 48.17 144.521 47.45 144.521 46.53C144.521 45.61 144.171 44.88 143.471 44.34C142.771 43.8 141.811 43.53 140.591 43.53C139.451 43.53 138.551 43.8 137.891 44.34C137.251 44.86 136.931 45.59 136.931 46.53C136.931 47.47 137.241 48.2 137.861 48.72C138.501 49.22 139.391 49.47 140.531 49.47Z" fill="#003366"/>
<path d="M150.797 38.22C150.797 36.74 151.637 36 153.317 36V37.92C153.137 38.1 152.927 38.37 152.687 38.73L152.807 38.85C153.407 38.01 154.187 37.33 155.147 36.81C156.107 36.27 157.147 36 158.267 36C159.887 36 161.167 36.48 162.107 37.44C163.047 38.4 163.517 39.64 163.517 41.16V49.62C163.517 50.28 163.297 50.77 162.857 51.09C162.437 51.39 161.787 51.54 160.907 51.54V41.43C160.907 40.47 160.637 39.71 160.097 39.15C159.557 38.59 158.737 38.31 157.637 38.31C156.897 38.31 156.197 38.47 155.537 38.79C154.897 39.09 154.377 39.51 153.977 40.05C153.597 40.57 153.407 41.14 153.407 41.76V49.62C153.407 50.28 153.187 50.77 152.747 51.09C152.327 51.39 151.677 51.54 150.797 51.54V38.22Z" fill="#003366"/>
<path d="M173.078 51.54C171.658 51.54 170.598 51.14 169.898 50.34C169.198 49.52 168.848 48.45 168.848 47.13V38.37H166.058C166.058 37.69 166.208 37.17 166.508 36.81C166.808 36.45 167.218 36.27 167.738 36.27H168.878V33.42C168.878 32.76 169.088 32.28 169.508 31.98C169.948 31.66 170.598 31.5 171.458 31.5V36.27H175.448C175.448 37.67 174.818 38.37 173.558 38.37H171.488V47.04C171.488 47.84 171.628 48.41 171.908 48.75C172.208 49.07 172.738 49.23 173.498 49.23C174.198 49.23 174.858 49.05 175.478 48.69C175.738 48.95 175.868 49.3 175.868 49.74C175.868 50.22 175.618 50.64 175.118 51C174.618 51.36 173.938 51.54 173.078 51.54Z" fill="#003366"/>
<path d="M24.8735 81.54C23.4535 81.54 22.3935 81.14 21.6935 80.34C20.9935 79.52 20.6435 78.45 20.6435 77.13V68.37H17.8535C17.8535 67.69 18.0035 67.17 18.3035 66.81C18.6035 66.45 19.0135 66.27 19.5335 66.27H20.6735V63.42C20.6735 62.76 20.8835 62.28 21.3035 61.98C21.7435 61.66 22.3935 61.5 23.2535 61.5V66.27H27.2435C27.2435 67.67 26.6135 68.37 25.3535 68.37H23.2835V77.04C23.2835 77.84 23.4235 78.41 23.7035 78.75C24.0035 79.07 24.5335 79.23 25.2935 79.23C25.9935 79.23 26.6535 79.05 27.2735 78.69C27.5335 78.95 27.6635 79.3 27.6635 79.74C27.6635 80.22 27.4135 80.64 26.9135 81C26.4135 81.36 25.7335 81.54 24.8735 81.54Z" fill="#003366"/>
<path d="M35.4656 81.54C34.2456 81.54 33.1356 81.31 32.1356 80.85C31.1556 80.39 30.3856 79.77 29.8256 78.99C29.2856 78.19 29.0156 77.3 29.0156 76.32V71.4C29.0156 70.4 29.2856 69.49 29.8256 68.67C30.3856 67.85 31.1556 67.2 32.1356 66.72C33.1156 66.24 34.2256 66 35.4656 66C36.7056 66 37.8156 66.24 38.7956 66.72C39.7956 67.2 40.5656 67.85 41.1056 68.67C41.6656 69.49 41.9456 70.4 41.9456 71.4V76.32C41.9456 77.3 41.6656 78.19 41.1056 78.99C40.5456 79.77 39.7756 80.39 38.7956 80.85C37.8156 81.31 36.7056 81.54 35.4656 81.54ZM35.4656 79.29C36.6656 79.29 37.6156 79.01 38.3156 78.45C39.0356 77.87 39.3956 77.12 39.3956 76.2V71.49C39.3956 70.53 39.0356 69.75 38.3156 69.15C37.6156 68.55 36.6656 68.25 35.4656 68.25C34.2856 68.25 33.3356 68.55 32.6156 69.15C31.8956 69.75 31.5356 70.53 31.5356 71.49V76.2C31.5356 77.12 31.8856 77.87 32.5856 78.45C33.3056 79.01 34.2656 79.29 35.4656 79.29Z" fill="#003366"/>
<path d="M52.5445 62.04C52.5445 60.68 53.4245 60 55.1845 60V67.32C54.8845 67.58 54.6745 67.8 54.5545 67.98L54.6445 68.13C55.2445 67.49 55.9745 66.98 56.8345 66.6C57.7145 66.2 58.5745 66 59.4145 66C61.1945 66 62.6145 66.47 63.6745 67.41C64.7345 68.35 65.2645 69.61 65.2645 71.19V76.32C65.2645 77.32 65.0145 78.22 64.5145 79.02C64.0345 79.82 63.3545 80.44 62.4745 80.88C61.5945 81.32 60.5945 81.54 59.4745 81.54C57.5145 81.54 55.8645 80.68 54.5245 78.96L54.4345 79.08C54.5545 79.26 54.7545 79.51 55.0345 79.83C55.0345 80.41 54.8345 80.84 54.4345 81.12C54.0345 81.4 53.4045 81.54 52.5445 81.54V62.04ZM58.9045 79.23C60.1245 79.23 61.0545 78.97 61.6945 78.45C62.3545 77.93 62.6845 77.18 62.6845 76.2V71.31C62.6845 70.37 62.3545 69.64 61.6945 69.12C61.0345 68.58 60.1145 68.31 58.9345 68.31C57.8945 68.31 57.0045 68.59 56.2645 69.15C55.5245 69.71 55.1545 70.38 55.1545 71.16V76.35C55.1545 77.17 55.5145 77.86 56.2345 78.42C56.9545 78.96 57.8445 79.23 58.9045 79.23Z" fill="#003366"/>
<path d="M74.8858 81.54C73.6658 81.54 72.5759 81.31 71.6159 80.85C70.6559 80.37 69.9059 79.72 69.3659 78.9C68.8259 78.06 68.5558 77.12 68.5558 76.08V71.64C68.5558 70.58 68.8359 69.62 69.3959 68.76C69.9759 67.9 70.7458 67.23 71.7058 66.75C72.6858 66.25 73.7458 66 74.8858 66C76.0258 66 77.0659 66.24 78.0059 66.72C78.9659 67.2 79.7159 67.86 80.2559 68.7C80.8159 69.54 81.0958 70.49 81.0958 71.55V73.47C81.0958 73.79 80.9758 74.06 80.7358 74.28C80.4958 74.5 80.2059 74.61 79.8659 74.61H71.1059V75.96C71.1059 76.98 71.4258 77.8 72.0658 78.42C72.7258 79.04 73.6658 79.35 74.8858 79.35C76.1058 79.35 77.0358 79.08 77.6758 78.54C78.3159 78 78.6358 77.27 78.6358 76.35C79.2358 76.31 79.7358 76.43 80.1358 76.71C80.5558 76.97 80.7659 77.36 80.7659 77.88C80.7659 78.52 80.4858 79.12 79.9258 79.68C79.3859 80.24 78.6659 80.69 77.7659 81.03C76.8659 81.37 75.9058 81.54 74.8858 81.54ZM78.6658 72.57V71.55C78.6658 70.55 78.3159 69.74 77.6159 69.12C76.9359 68.48 76.0258 68.16 74.8858 68.16C73.7458 68.16 72.8258 68.48 72.1258 69.12C71.4458 69.74 71.1059 70.55 71.1059 71.55V72.57H78.6658Z" fill="#003366"/>
<path d="M90.259 81.54C89.039 81.54 87.949 81.32 86.989 80.88C86.029 80.44 85.279 79.82 84.739 79.02C84.219 78.22 83.959 77.31 83.959 76.29V71.43C83.959 70.37 84.219 69.43 84.739 68.61C85.279 67.79 86.019 67.15 86.959 66.69C87.899 66.23 88.979 66 90.199 66C91.339 66 92.349 66.17 93.229 66.51C94.129 66.83 94.829 67.29 95.329 67.89C95.829 68.49 96.079 69.17 96.079 69.93C96.079 70.43 95.879 70.84 95.479 71.16C95.099 71.46 94.599 71.59 93.979 71.55C93.979 70.59 93.629 69.81 92.929 69.21C92.249 68.61 91.359 68.31 90.259 68.31C89.159 68.31 88.269 68.61 87.589 69.21C86.909 69.79 86.569 70.55 86.569 71.49V76.17C86.569 77.07 86.919 77.81 87.619 78.39C88.319 78.95 89.219 79.23 90.319 79.23C91.419 79.23 92.309 78.93 92.989 78.33C93.689 77.73 94.039 76.96 94.039 76.02C94.679 75.98 95.189 76.11 95.569 76.41C95.969 76.69 96.169 77.09 96.169 77.61C96.169 78.37 95.919 79.05 95.419 79.65C94.919 80.25 94.219 80.72 93.319 81.06C92.419 81.38 91.399 81.54 90.259 81.54Z" fill="#003366"/>
<path d="M104.249 81.54C103.029 81.54 101.919 81.31 100.919 80.85C99.9388 80.39 99.1688 79.77 98.6088 78.99C98.0688 78.19 97.7988 77.3 97.7988 76.32V71.4C97.7988 70.4 98.0688 69.49 98.6088 68.67C99.1688 67.85 99.9388 67.2 100.919 66.72C101.899 66.24 103.009 66 104.249 66C105.489 66 106.599 66.24 107.579 66.72C108.579 67.2 109.349 67.85 109.889 68.67C110.449 69.49 110.729 70.4 110.729 71.4V76.32C110.729 77.3 110.449 78.19 109.889 78.99C109.329 79.77 108.559 80.39 107.579 80.85C106.599 81.31 105.489 81.54 104.249 81.54ZM104.249 79.29C105.449 79.29 106.399 79.01 107.099 78.45C107.819 77.87 108.179 77.12 108.179 76.2V71.49C108.179 70.53 107.819 69.75 107.099 69.15C106.399 68.55 105.449 68.25 104.249 68.25C103.069 68.25 102.119 68.55 101.399 69.15C100.679 69.75 100.319 70.53 100.319 71.49V76.2C100.319 77.12 100.669 77.87 101.369 78.45C102.089 79.01 103.049 79.29 104.249 79.29Z" fill="#003366"/>
<path d="M113.893 68.22C113.893 66.74 114.723 66 116.383 66V67.92C116.123 68.2 115.913 68.47 115.753 68.73L115.873 68.85C116.513 67.95 117.193 67.25 117.913 66.75C118.633 66.25 119.463 66 120.403 66C122.223 66 123.473 66.87 124.153 68.61C125.293 66.87 126.813 66 128.713 66C130.133 66 131.223 66.48 131.983 67.44C132.763 68.38 133.153 69.62 133.153 71.16V79.62C133.153 80.28 132.933 80.77 132.493 81.09C132.073 81.39 131.433 81.54 130.573 81.54V71.31C130.573 70.35 130.373 69.6 129.973 69.06C129.573 68.52 128.943 68.25 128.083 68.25C127.183 68.25 126.413 68.56 125.773 69.18C125.133 69.78 124.813 70.59 124.813 71.61V79.62C124.813 80.28 124.603 80.77 124.183 81.09C123.763 81.39 123.123 81.54 122.263 81.54V71.31C122.263 70.35 122.063 69.6 121.663 69.06C121.263 68.52 120.633 68.25 119.773 68.25C118.853 68.25 118.073 68.58 117.433 69.24C116.793 69.9 116.473 70.71 116.473 71.67V79.62C116.473 80.28 116.253 80.77 115.813 81.09C115.393 81.39 114.753 81.54 113.893 81.54V68.22Z" fill="#003366"/>
<path d="M142.797 81.54C141.577 81.54 140.487 81.31 139.527 80.85C138.567 80.37 137.817 79.72 137.277 78.9C136.737 78.06 136.467 77.12 136.467 76.08V71.64C136.467 70.58 136.747 69.62 137.307 68.76C137.887 67.9 138.657 67.23 139.617 66.75C140.597 66.25 141.657 66 142.797 66C143.937 66 144.977 66.24 145.917 66.72C146.877 67.2 147.627 67.86 148.167 68.7C148.727 69.54 149.007 70.49 149.007 71.55V73.47C149.007 73.79 148.887 74.06 148.647 74.28C148.407 74.5 148.117 74.61 147.777 74.61H139.017V75.96C139.017 76.98 139.337 77.8 139.977 78.42C140.637 79.04 141.577 79.35 142.797 79.35C144.017 79.35 144.947 79.08 145.587 78.54C146.227 78 146.547 77.27 146.547 76.35C147.147 76.31 147.647 76.43 148.047 76.71C148.467 76.97 148.677 77.36 148.677 77.88C148.677 78.52 148.397 79.12 147.837 79.68C147.297 80.24 146.577 80.69 145.677 81.03C144.777 81.37 143.817 81.54 142.797 81.54ZM146.577 72.57V71.55C146.577 70.55 146.227 69.74 145.527 69.12C144.847 68.48 143.937 68.16 142.797 68.16C141.657 68.16 140.737 68.48 140.037 69.12C139.357 69.74 139.017 70.55 139.017 71.55V72.57H146.577Z" fill="#003366"/>
<path d="M156.7 73.05C156.7 72.15 156.93 71.42 157.39 70.86C157.87 70.3 158.57 69.7 159.49 69.06C160.35 68.48 160.99 67.94 161.41 67.44C161.85 66.94 162.07 66.31 162.07 65.55C162.07 64.51 161.76 63.73 161.14 63.21C160.52 62.69 159.55 62.43 158.23 62.43C157.03 62.43 156.05 62.77 155.29 63.45C154.55 64.11 154.18 65.03 154.18 66.21C154.18 66.59 154.2 66.91 154.24 67.17C154.14 67.19 154 67.2 153.82 67.2C153.14 67.2 152.57 67.03 152.11 66.69C151.65 66.33 151.42 65.85 151.42 65.25C151.42 64.29 151.73 63.41 152.35 62.61C152.99 61.79 153.83 61.15 154.87 60.69C155.91 60.23 157.03 60 158.23 60C160.17 60 161.76 60.48 163 61.44C164.24 62.4 164.86 63.73 164.86 65.43C164.86 66.19 164.7 66.86 164.38 67.44C164.08 68 163.71 68.47 163.27 68.85C162.85 69.23 162.3 69.66 161.62 70.14C160.88 70.66 160.33 71.11 159.97 71.49C159.61 71.85 159.43 72.27 159.43 72.75V73.35C159.43 74.59 158.52 75.21 156.7 75.21V73.05ZM158.02 81.54C157.4 81.54 156.88 81.35 156.46 80.97C156.06 80.57 155.86 80.07 155.86 79.47C155.86 78.89 156.06 78.4 156.46 78C156.88 77.6 157.4 77.4 158.02 77.4C158.64 77.4 159.16 77.6 159.58 78C160 78.4 160.21 78.89 160.21 79.47C160.21 80.07 160 80.57 159.58 80.97C159.16 81.35 158.64 81.54 158.02 81.54Z" fill="#003366"/>
</svg>
