<svg width="472" height="693" viewBox="0 0 472 693" fill="none" xmlns="http://www.w3.org/2000/svg">
<path fill-rule="evenodd" clip-rule="evenodd" d="M106.794 400.406C111.914 398.65 116.847 396.621 121.342 393.639C134.303 384.355 142.752 370.387 150.735 357.152C161.983 337.902 169.994 317.39 175.533 295.993C177.913 286.8 178.722 276.139 184.13 267.99C196.385 250.922 232.327 253.133 251.413 256.129C264.192 258.306 266.835 272.07 269.737 282.253C272.153 290.716 273.735 299.273 275.063 307.945C278.225 309.944 281.791 311.568 285.192 312.983C322.247 323.918 328.759 344.188 342.913 375.5C366.818 421.014 431.684 438.834 441.482 492.695C447.795 528.256 429.843 561.711 411.334 591.273C394.097 623.562 370.033 639.06 331.71 631.432C295.765 623.673 261.221 610.692 225.906 600.662C208.805 596.617 191.728 586.09 173.736 589.759C136.667 597.771 98.579 601.54 60.5861 600.498C7.24652 602.576 7.25488 553.309 12.7295 515.158C16.5634 455.786 47.6837 417.662 106.794 400.406Z" fill="white"/>
<path fill-rule="evenodd" clip-rule="evenodd" d="M103.231 486.318C98.7716 489.155 95.0243 493.455 92.0135 497.983C104.578 496.724 117.121 495.275 129.632 493.624C127.995 492.615 126.343 491.63 124.652 490.701C118.48 487.354 110.12 481.935 103.231 486.318ZM311.965 522.056C314.267 521.189 315.157 517.81 316.055 515.875C318.868 509.804 321.435 503.63 324.106 497.497C313.964 494.716 304.102 491.63 293.597 490.148C282.299 488.554 270.836 488.167 259.435 488.527C236.342 489.252 213.462 492.883 190.76 496.778C168.08 500.667 145.406 504.403 122.567 507.337C100.195 510.212 77.7522 512.313 55.2651 514.16C50.8954 514.519 43.6127 516.031 40.0997 512.721C37.3178 510.101 37.2257 505.27 40.708 503.139C42.8761 501.81 46.018 501.792 48.493 501.486C51.6126 501.099 54.7461 500.841 57.8852 500.643C59.1632 500.56 60.4411 500.484 61.7219 500.412C51.4535 496.686 40.7303 494.655 29.5998 495.221C28.9692 498.901 26.1342 502.685 24.58 505.721C21.8706 511.019 19.7584 516.382 18.3716 522.142C15.4724 534.186 15.3441 546.683 16.1644 558.965C16.915 569.207 18.5334 580.534 26.8793 587.787C33.1993 593.278 42.1171 595.31 50.3876 595.952C60.003 596.692 69.7664 595.901 79.3008 594.661C92.672 592.919 106.107 590.618 119.216 587.534C144.608 581.562 168.945 572.061 191.399 559.177C202.348 552.894 212.798 545.824 223.898 539.782C235.207 533.622 247.244 528.844 259.881 525.876C274.023 522.556 288.809 521.138 303.343 521.957C305.867 522.099 309.511 522.98 311.965 522.056ZM328.355 515.891C326.868 520.532 325.731 525.83 322.559 529.73C319.417 533.595 314.677 534.959 309.766 535.302C303.845 535.716 297.855 535.45 291.92 535.662C279.751 536.099 267.747 538 256.112 541.489C245.271 544.742 235.207 549.815 225.51 555.441C216.545 560.645 207.845 566.234 198.877 571.422C201.263 572.474 203.623 573.615 205.995 574.605C210.973 576.685 215.979 578.69 221.01 580.647C230.926 584.504 240.888 588.27 250.95 591.767C271.238 598.816 291.861 604.975 312.733 610.223C322.688 612.727 332.783 615.65 343.125 616.066C352.295 616.436 360.789 613.94 368.185 608.693C383.525 597.812 395.73 582.104 405.596 566.609C411.457 557.403 416.572 547.732 420.803 537.731C422.943 532.675 424.884 527.54 426.63 522.344C427.45 519.904 428.227 517.45 428.963 514.986C429.286 513.905 429.596 512.818 429.903 511.728C414.217 507.122 398.345 502.965 382.1 500.656C373.427 499.424 364.638 498.799 355.869 498.89C351.517 498.936 347.167 499.161 342.838 499.593C340.508 499.827 338.187 500.125 335.876 500.498C334.921 500.648 333.939 500.876 332.955 501.043C331.451 506 329.935 510.955 328.355 515.891ZM4.10193 496.176C3.25647 494.531 2.9021 492.91 2.59793 491.12C2.36633 489.754 1.75247 487.829 2.29102 486.055C2.89093 484.069 4.52887 482.292 5.70639 480.595C7.00388 478.722 8.30133 476.848 9.59885 474.972C12.191 471.223 14.7777 467.468 17.3587 463.713C27.9033 448.373 38.3753 432.988 48.8641 417.614C58.1726 403.97 67.3248 390.204 76.9151 376.743C85.1186 365.234 94.056 353.912 105.284 344.961C119.479 333.642 136.379 328.312 154.037 324.151C155.965 322.224 158.54 321.172 161.291 321.387C165.181 317.141 168.273 314.177 169.673 308.777C170.346 306.192 170.137 298.927 172.751 297.397C175.86 295.579 177.483 297.984 178.34 300.698C181.209 309.767 177.919 321.964 170.343 331.05C173.535 341.662 177.765 356.75 185.313 365.253C193.397 374.357 204.575 377.191 216.637 377.379C239.638 377.734 262.616 369.51 280.159 355.252C285.494 350.92 290.444 346.08 294.925 340.932C298.287 337.07 302.261 331.111 304.891 326.607C304.891 324.852 307.045 323.016 285.12 321.599C263.193 320.179 261.53 291.29 261.042 287.358C260.646 284.167 258.963 279.209 261.302 276.606C262.292 275.5 264.329 275.323 265.588 276.074C267.959 277.491 268.738 281.118 269.483 283.579C270.529 287.025 273.945 308.428 280.415 310.906C283.443 312.065 286.919 312.087 290.123 312.301C294.079 312.57 298.044 312.763 301.987 313.206C303.441 313.37 305.027 313.823 306.461 313.834C307.394 313.845 308.357 313.407 309.259 313.101C312.303 312.065 315.345 312.843 318.481 313.249C346.209 316.835 374.759 325.018 398.41 339.743C419.256 352.723 433.942 371.388 443.633 393.213C453.52 415.488 459.188 439.572 463.938 463.28C465.529 471.225 466.918 479.208 468.112 487.214C469.266 494.953 470.709 502.865 471.054 510.681C471.191 513.773 470.423 516.648 469.241 519.472C467.91 522.652 464.763 523.906 461.746 525.39C455.121 528.651 448.134 531.18 440.934 532.97C436.536 540.67 432.834 548.672 429.86 556.973C430.963 559.078 430.986 562.221 431.198 564.266C431.725 569.358 431.95 574.476 431.997 579.592C432.092 589.845 431.451 600.09 430.949 610.328C430.44 620.71 428.747 661.679 428.471 666.682C428.256 670.569 428.545 676.004 426.417 679.456C423.148 684.76 415.079 684.58 411.342 680.28C318.481 699.49 143.93 693.703 73.6281 684.038C64.4815 682.781 67.3527 684.174 65.0284 681.952C63.2816 680.283 61.7972 677.421 61.3145 675.124C60.6671 672.056 61.7107 669.281 63.5356 666.798C65.4525 664.189 65.8041 659.961 66.5156 656.859C68.201 649.523 69.0381 617.309 69.8277 613.739C70.0705 612.625 70.3104 611.449 70.5951 610.274C57.701 611.449 44.2629 611.449 31.9967 607.297C25.0377 604.943 18.5502 601.247 13.5555 595.968C7.50888 589.577 4.14658 581.53 2.41379 573.132C0.181549 562.301 -0.290009 551.085 0.148071 540.075C0.756348 527.065 2.99976 513.87 8.56644 501.923C6.73322 500.286 5.19852 498.313 4.10193 496.176Z" fill="#003366"/>
<path fill-rule="evenodd" clip-rule="evenodd" d="M129.036 114.896C148.476 88.4017 197.323 85.417 228.192 85.5847C289.16 85.0962 301.926 152.532 305.11 199.787C311.613 200.85 317.937 203.032 322.227 207.949C327.452 213.937 329.257 224.217 324.359 230.914C321.105 235.362 315.967 236.846 310.593 237.096C292.796 235.461 289.146 250.725 280.382 262.173C257.889 291.413 218.923 300.899 183.184 301.044C171.044 301.355 156.42 302.233 148.646 291.241C124.094 250.285 123.558 195.968 122.046 149.556C121.837 137.674 121.89 125.095 129.036 114.896Z" fill="white"/>
<path fill-rule="evenodd" clip-rule="evenodd" d="M87.0829 137.879C86.8374 138.328 86.6533 138.825 86.5528 139.365C86.2347 141.082 86.8904 142.394 87.7526 143.668C87.641 144.556 87.5768 145.417 87.5294 146.175C87.2531 150.427 88.2661 156.256 92.1613 157.992C92.2227 158.062 92.2841 158.132 92.3483 158.202C92.6496 158.672 93.1072 159.08 93.7127 159.377C93.8606 159.477 94.0141 159.573 94.1648 159.654C94.2066 159.687 94.2485 159.717 94.2903 159.746C94.3238 159.768 94.3545 159.789 94.3852 159.812C94.3015 159.73 94.2233 159.645 94.1424 159.561C96.2993 160.388 98.3809 160.559 100.602 160.308C101.975 160.785 103.353 161.142 104.514 161.419C108.141 162.28 112.815 162.97 116.351 161.501C117.38 161.073 118.234 160.506 118.876 159.831C118.823 162.463 118.742 165.094 118.625 167.727C118.382 174.381 118.396 181.03 118.449 187.69C118.507 195.184 118.725 202.683 119.144 210.172C119.339 213.932 119.651 217.687 120.07 221.432C120.422 225.079 120.835 228.722 121.312 232.35C122.439 239.818 124.295 247.338 126.56 254.556C127.542 257.685 128.622 260.858 129.847 263.955C130.366 265.378 130.916 266.784 131.51 268.18C134.652 275.492 138.567 282.551 143.855 288.644C146.743 291.966 149.932 294.956 153.492 297.469C156.352 299.613 159.447 301.428 162.848 302.858C170.159 305.934 178.318 306.624 186.223 306.511C189.239 306.474 192.434 305.961 195.425 305.481L195.607 305.451C197.942 305.083 200.305 304.59 202.646 304.01C204.722 303.545 206.773 303.006 208.794 302.375C211.229 301.758 213.565 300.867 215.786 299.715L219.723 298.293C221.369 297.697 222.966 296.988 224.517 296.175L228.797 294.253C230.572 293.429 232.299 292.527 233.984 291.534C234.16 291.446 234.361 291.293 234.439 291.121C234.621 291.024 234.805 290.93 234.986 290.834C235.243 290.702 235.5 290.568 235.753 290.428C235.823 290.396 235.77 290.198 235.675 290.004C235.753 289.851 235.74 289.68 235.527 289.527C235.368 289.408 235.117 289.443 234.849 289.521C234.875 289.505 234.891 289.489 234.911 289.47C235.204 289.317 235.494 289.17 235.781 289.017C236.077 288.864 236.125 288.466 235.848 288.257C235.77 288.201 235.681 288.171 235.594 288.166C235.597 288.166 235.603 288.163 235.606 288.16C235.608 288.16 235.608 288.16 235.611 288.16C235.664 288.125 235.622 287.967 235.547 287.793C235.695 287.61 235.74 287.39 235.483 287.197C235.126 286.928 234.328 287.366 233.957 287.573C233.929 287.589 233.901 287.602 233.878 287.616C233.647 287.739 233.412 287.86 233.181 287.978C233.039 288.05 232.899 288.123 232.757 288.195C232.734 288.144 232.687 288.099 232.612 288.053C233.159 287.774 233.7 287.492 234.241 287.208H234.244C234.579 287.036 235.017 286.679 234.573 286.346C234.219 286.072 233.306 286.537 232.871 286.775C232.818 286.735 232.757 286.719 232.687 286.708C232.762 286.668 232.84 286.628 232.919 286.587C233.036 286.526 233.153 286.467 233.265 286.402C233.795 286.118 233.435 285.232 232.888 285.527C232.824 285.568 232.757 285.602 232.693 285.643C232.319 285.611 231.8 285.89 231.532 286.035L231.49 286.056C229.646 287.173 227.723 288.15 225.731 288.99C224.386 289.602 223.038 290.208 221.682 290.799C220.348 291.432 218.975 291.983 217.566 292.45C214.023 293.775 210.445 295.013 206.832 296.159C201.768 297.493 196.527 298.564 191.268 298.985C190.584 299.036 189.9 299.079 189.217 299.103C188.472 299.098 187.724 299.093 186.979 299.09C186.228 299.085 185.48 299.079 184.73 299.074C182.085 298.811 179.439 298.553 176.797 298.295L176.019 298.218C175.006 298.081 174.015 297.912 173.036 297.713C172.522 297.595 172.009 297.469 171.504 297.327C171.384 297.313 171.267 297.292 171.149 297.273C171.091 297.262 171.032 297.251 170.974 297.243C169.729 296.924 168.507 296.545 167.288 296.103C166.52 295.802 165.761 295.483 165.005 295.15C162.513 294.03 160.061 292.557 157.75 290.866C156.302 289.478 154.854 288.093 153.409 286.708C151.96 285.323 150.512 283.936 149.067 282.551L146.419 279.077C143.001 274.375 140.294 269.133 138.048 263.784L134.476 253.879C134.105 252.688 133.751 251.496 133.416 250.299C132.738 247.623 132.06 244.944 131.382 242.273C131.159 241.291 130.938 240.317 130.726 239.34C129.423 233.266 128.706 227.098 128.087 220.932C126.954 209.71 126.647 198.456 126.566 187.191C126.513 180.457 126.571 173.723 126.714 166.995C126.795 163.092 126.853 159.189 126.912 155.286C126.99 151.145 127.071 146.998 127.185 142.857C127.191 142.766 127.155 142.687 127.107 142.619C127.118 142.131 127.124 141.643 127.132 141.15C127.138 140.826 127.007 140.684 126.82 140.656C126.853 137.701 126.878 134.751 126.884 131.801C126.884 131.608 126.789 131.483 126.666 131.409V130.661C127.177 128.607 127.874 126.593 128.776 124.676C129.083 123.984 129.423 123.309 129.803 122.651C130.266 121.663 130.874 120.767 131.616 119.945C132.236 118.941 132.998 118.05 133.882 117.256C134.061 117.131 134.242 117.006 134.423 116.882C134.605 116.757 134.786 116.632 134.965 116.507C135.266 116.354 135.707 116.087 136.098 115.781C136.449 115.574 136.798 115.366 137.147 115.157C137.495 114.949 137.844 114.74 138.196 114.533C138.603 114.329 138.338 113.818 138.048 113.682V113.665C138.112 113.636 138.185 113.603 138.26 113.54C139.111 112.769 139.993 112.042 140.914 111.362C141.078 111.424 141.274 111.401 141.421 111.282C141.963 110.795 142.518 110.324 143.082 109.87C144.351 109.07 145.677 108.338 147.063 107.692C149.285 106.682 151.559 105.814 153.894 105.076C154.349 104.933 154.807 104.803 155.261 104.673L155.409 104.631C155.686 104.619 155.959 104.605 156.235 104.592C156.676 104.57 157.12 104.549 157.561 104.53C184.272 103.403 211.056 103.877 237.707 105.946C244.272 106.456 250.83 107.063 257.376 107.767C258.612 107.9 259.898 108.003 261.21 108.109C266.023 108.495 271.176 108.91 275.337 110.905C275.563 111.012 275.775 111.126 275.984 111.244C275.624 113.457 274.762 115.624 273.925 117.73C273.799 118.05 273.671 118.369 273.548 118.686C272.097 122.394 270.794 126.173 270.925 130.188C271.015 132.988 271.64 135.681 272.541 138.311C273.001 142.063 274.218 145.686 275.507 149.246C281.855 166.76 285.309 184.692 284.955 203.285C284.947 203.781 285.064 204.216 285.27 204.586L285.259 204.659C285.148 205.448 285.033 206.237 284.902 207.023C284.372 210.156 288.666 211.715 290.148 209.638C290.245 209.732 290.385 209.796 290.511 209.807C290.89 209.842 291.507 209.246 291.685 208.975C291.914 208.564 292.157 208.167 292.416 207.788C292.45 207.772 292.481 207.759 292.511 207.748C292.433 207.904 292.352 208.06 292.274 208.215C292.193 208.376 292.112 208.54 292.031 208.696C291.772 209.195 292.771 209.439 293.064 208.98C293.329 208.578 293.594 208.191 293.859 207.823C294.012 207.931 294.185 207.958 294.297 207.783C295.246 206.275 296.342 204.981 297.545 203.88C299.437 202.393 301.504 201.492 303.858 200.963C305.709 200.708 307.607 200.697 309.441 200.901C311.545 201.14 313.762 201.645 315.666 202.568C317.216 203.596 318.772 204.624 320.329 205.649C320.712 206.036 321.077 206.438 321.419 206.857C322.498 208.202 323.365 209.638 324.078 211.162C324.107 211.259 324.137 211.356 324.166 211.447C324.603 212.73 324.886 214.045 325.009 215.395C325.018 216.249 325.025 217.102 325.033 217.953C325.04 218.807 325.048 219.657 325.056 220.511C324.821 222.731 324.231 224.886 323.329 226.934C322.905 228.142 322.239 229.221 321.337 230.174C320.853 230.979 320.305 231.709 319.692 232.391C318.448 233.185 317.092 233.862 315.648 234.393H315.647C315.294 234.484 314.94 234.576 314.581 234.643C312.724 235.33 310.802 235.697 308.816 235.748C306.304 235.915 303.846 235.703 301.44 235.12C299.956 234.865 298.516 234.449 297.126 233.878C295.793 233.231 294.537 232.452 293.365 231.545C293.234 231.467 293.041 231.513 292.829 231.615C292.57 231.432 292.31 231.255 292.056 231.057C291.939 230.979 291.833 231.075 291.78 231.177L291.708 231.126C291.242 230.82 289.964 231.779 290.541 232.345C290.293 232.493 290.045 232.67 289.821 232.85C288.797 232.89 286.727 234.704 287.115 234.989C287.692 235.472 288.301 235.915 288.92 236.334C288.37 236.725 287.653 237.332 287.988 237.576C288.591 238.127 289.244 238.602 289.939 239.012C290.41 239.356 290.896 239.686 291.401 239.987C291.95 240.298 292.511 240.566 293.089 240.816C292.079 242.692 291.119 244.587 290.223 246.517C289.626 247.883 288.937 249.206 288.142 250.476C287.129 252.411 285.912 254.226 284.492 255.917C283.337 257.787 281.981 259.508 280.432 261.078C278.515 263.177 276.459 265.152 274.271 266.978C273.398 267.574 272.507 268.153 271.584 268.685C269.218 270.4 266.701 271.868 264.031 273.092C263.718 273.258 263.472 273.621 263.835 273.905C263.849 273.911 263.86 273.911 263.871 273.921C262.998 274.399 262.122 274.869 261.237 275.333L261.207 275.349C260.85 275.534 260.191 275.878 260.707 276.281C261.048 276.554 262.102 276.066 262.733 275.749C262.694 275.771 262.649 275.792 262.607 275.816C262.557 275.84 262.507 275.867 262.457 275.897C262.448 275.9 262.437 275.905 262.423 275.913C262.164 276.047 261.173 276.557 261.832 276.887C262.181 276.946 262.51 276.887 262.828 276.724C263.16 276.605 263.489 276.474 263.813 276.337C263.802 276.439 263.86 276.536 264.031 276.616C264.167 276.638 264.296 276.638 264.427 276.627C263.707 277.019 262.987 277.405 262.261 277.784C262.049 277.894 261.048 278.425 261.709 278.755C262.033 278.817 262.345 278.766 262.647 278.608C263.193 278.409 263.738 278.176 264.262 277.921C264.385 277.854 264.508 277.789 264.633 277.722C264.728 277.722 264.82 277.711 264.915 277.695C264.337 277.996 263.754 278.283 263.166 278.568C262.817 278.75 262.234 279.118 262.733 279.494C263.082 279.749 264.019 279.287 264.575 278.986C264.608 279.026 264.65 279.072 264.709 279.118C265.071 279.381 265.931 278.906 266.363 278.664C266.425 278.629 266.478 278.6 266.519 278.578C269.444 277.07 272.268 275.51 274.985 273.723C276.646 272.697 278.267 271.618 279.854 270.443C282.89 268.185 285.647 265.56 288.178 262.79C289.905 260.896 290.843 259.83 292.517 257.532C295.204 253.834 297.232 249.977 299.183 245.886C299.214 245.824 299.155 245.666 299.066 245.508C299.467 244.56 299.855 243.599 300.243 242.609C301.259 242.738 302.277 242.829 303.287 242.885C305.662 243.017 307.967 242.813 310.201 242.341C312.907 242.005 315.583 241.27 317.953 240.113C319.374 239.426 320.741 238.693 322.038 237.877C323.199 237.281 324.32 236.599 325.393 235.805C329.961 232.447 332.443 227.235 333.05 221.823C333.516 219.44 333.616 216.989 333.339 214.625C333.138 212.904 332.738 211.203 332.154 209.563C331.075 205.928 329.065 202.563 326.153 200.015C325.663 199.535 325.151 199.076 324.603 198.644C322.981 197.366 321.142 196.341 319.185 195.592C318.808 195.415 318.425 195.251 318.041 195.098L318.507 194.065C318.672 194.11 319.244 194.019 319.315 193.829C319.43 193.525 319.542 193.217 319.653 192.911C319.723 192.717 319.792 192.527 319.863 192.336C319.969 192.398 320.105 192.433 320.252 192.438V193.01C320.246 193.174 320.57 194.196 320.747 193.662C320.859 193.364 320.964 193.061 321.069 192.76C321.136 192.567 321.203 192.374 321.272 192.183C321.419 192.092 321.531 191.985 321.572 191.858H321.573C321.59 191.807 321.608 191.756 321.631 191.705C321.64 191.7 321.653 191.7 321.663 191.697C321.667 191.697 321.67 191.695 321.673 191.695V191.869C321.667 191.979 321.962 192.795 322.015 192.637C323.034 189.937 323.866 187.177 324.514 184.375C324.956 182.835 325.304 181.273 325.569 179.691C325.858 178.267 326.112 176.837 326.33 175.396L326.383 175.039C326.386 175.025 326.389 175.012 326.391 174.999C326.395 174.987 326.398 174.974 326.4 174.96C326.418 174.806 326.436 174.648 326.46 174.494C326.695 172.866 326.89 171.232 327.037 169.587C327.35 166.207 327.473 162.808 327.438 159.416C327.486 159.434 327.531 159.456 327.578 159.478C327.605 159.492 327.633 159.505 327.662 159.518C329.193 160.146 330.812 160.659 332.458 161.067C335.291 165.006 339.813 167.672 345.232 167.952C347.067 168.047 348.991 167.832 350.773 167.334C350.958 167.374 351.149 167.407 351.347 167.432C352.278 167.549 353.027 167.358 353.802 167.159C354.236 167.048 354.679 166.935 355.166 166.872C355.342 166.85 355.516 166.828 355.688 166.807C357.635 166.566 359.296 166.361 360.589 165.245C361.024 165.254 361.439 165.194 361.833 165.08C365.563 165.941 369.526 164.044 370.838 160.069C373.075 158.807 374.857 156.935 376.056 154.764C378.365 151.916 380.21 148.424 381.355 144.756C381.362 144.742 381.37 144.728 381.377 144.715C381.388 144.694 381.399 144.674 381.409 144.652C381.99 143.44 382.266 142.141 382.29 140.837C382.908 137.124 382.745 133.406 381.57 130.138C381.62 128.366 381.187 126.52 380.395 124.844C379.434 122.813 377.97 120.477 376.07 119.123C376.065 117.041 375.136 114.749 373.917 113.196C371.486 110.093 367.959 108.453 364.143 108.216C362.202 103.429 356.322 102.311 351.25 103.904C349.143 101.833 346.057 100.843 342.977 101.196C340.372 101.493 338.146 102.692 336.303 104.344C335.818 104.477 335.334 104.616 334.85 104.761C333.237 104.08 331.355 103.925 329.633 104.353C326.648 105.093 324.701 107.269 323.354 109.765C322.924 110.05 322.505 110.344 322.095 110.65C321.645 110.845 321.236 111.104 320.866 111.409C320.327 111.685 319.869 112.14 319.591 112.799C318.83 113.553 318.123 114.351 317.497 115.207C317.028 114.164 316.544 113.128 316.045 112.1C315.232 112.335 314.25 112.031 313.841 110.986L313.736 110.72C311.122 104.043 306.466 92.154 302.076 86.6363C307.269 90.0384 313.608 91.8316 319.905 91.6512C320.175 91.6432 320.446 91.6324 320.721 91.6182C324.106 92.1797 327.544 92.2321 330.701 91.6228C332.827 90.8801 334.898 89.9951 336.905 88.994C337.393 88.75 337.877 88.4937 338.36 88.2349C338.511 88.1123 338.654 87.9797 338.797 87.8468C338.853 87.7947 338.91 87.7424 338.966 87.6909C339.381 87.7199 339.816 87.6887 340.278 87.5706C342.015 87.1288 343.623 86.0163 344.631 84.5867C344.818 84.3207 344.969 84.0467 345.104 83.7705C346.197 82.7414 347.144 81.5757 347.841 80.2125C348.66 78.6184 349.161 76.8257 349.214 75.0333C349.556 73.2747 349.533 71.4651 348.896 69.7859C348.851 69.6716 348.802 69.5594 348.752 69.4467C348.723 69.3804 348.694 69.3141 348.666 69.247C348.651 69.2005 348.639 69.153 348.626 69.1055C348.608 69.0368 348.59 68.9678 348.566 68.901C348.379 68.3024 348.142 67.7691 347.855 67.2643C347.748 66.7451 347.574 66.2306 347.327 65.7298C347.3 65.4877 347.265 65.2453 347.225 65.0043C349.098 61.6033 348.434 57.156 345.63 54.3917C346.018 52.6046 345.623 50.7099 344.493 49.1245C343.663 47.9593 342.509 47.0397 341.202 46.4015C341.066 46.3352 340.705 46.2211 340.274 46.0901C339.791 45.6786 339.28 45.2895 338.722 44.947C338.59 41.6227 335.141 39.7052 332.156 38.0449C332.011 37.9646 331.868 37.8852 331.727 37.806C330.754 37.2627 330.049 36.4822 329.343 35.7011C328.602 34.8812 327.86 34.0609 326.808 33.5139C324.969 32.5584 322.708 32.3385 320.586 32.1321C320.117 32.0868 319.655 32.0417 319.206 31.9896C313.354 31.3113 307.123 30.7871 301.242 31.4002C297.975 31.7405 295.271 33.2581 294.155 35.7438C291.345 36.0632 288.842 38.0137 286.861 40.0195C284.389 42.523 282.282 45.188 281.556 48.4776C281.074 48.7291 280.636 49.0364 280.237 49.3837C280.253 51.6969 280.566 54.0143 281.23 56.1978C281.035 57.5031 281.442 58.7493 282.134 59.8796C282.028 60.9494 282.103 62.0027 282.338 63.0527C280.993 65.3475 282.251 68.8151 284.135 71.0907L284.149 72.3736C284.037 72.3176 283.925 72.2513 283.825 72.1678C278.409 67.7332 272.898 66.5106 266.944 65.1903C263.506 64.4277 259.92 63.6324 256.123 62.1672C246.761 60.4285 237.207 59.3218 227.62 58.9536C227.748 58.9356 227.874 58.9224 227.999 58.9026C232.832 58.1413 237.472 56.2289 241.462 53.4815C242.52 53.2241 243.522 52.7651 244.417 51.9978C245.288 51.2521 245.893 50.3922 246.24 49.4699C246.396 49.307 246.552 49.143 246.705 48.9763C249.702 48.2682 251.985 45.7739 251.602 42.4951C253.5 40.3344 254.197 37.6664 253.556 34.8884C254.616 33.1658 254.708 30.9935 253.916 29.1743C255.581 27.2272 255.713 24.4635 254.407 22.2609C255.598 20.6298 255.86 18.4686 254.39 16.5368C253.695 15.6248 252.733 15.0496 251.686 14.7715C251.39 13.7205 250.788 12.7442 249.842 11.9903C249.356 11.6027 248.846 11.3152 248.327 11.1008C248.131 10.0156 247.492 8.98654 246.267 8.17703C245.709 7.80985 245.14 7.57284 244.576 7.44132C244.041 6.16477 243.103 5.04551 241.789 4.31894C240.201 3.44232 238.354 3.3261 236.672 3.78561C234.473 0.589682 229.651 -0.649287 226.308 1.72129C223.524 0.0636027 220.022 0.413068 217.522 2.42881C214.497 0.708048 210.738 1.40242 208.367 3.80145C204.563 1.80235 199.546 3.27912 197.512 7.06689C193.676 6.6573 190.059 9.07377 189.035 12.5717C188.871 12.7016 188.706 12.8352 188.541 12.9689L188.5 13.0041C186.2 13.1101 184.016 13.9768 182.726 16.0339C182.085 17.061 181.786 18.2683 181.831 19.4512C180.455 20.166 179.347 21.3384 178.87 22.8581C178.424 24.2831 178.594 25.6928 179.18 26.921C177.266 28.8798 176.761 31.933 178.114 34.3932C177.553 35.3189 177.263 36.4132 177.308 37.5507C177.377 39.235 178.187 40.5926 179.292 41.7513C177.905 44.1624 178.446 47.2553 180.701 48.9457C181.998 53.3683 185.28 56.3105 190.305 58.1158C192.83 59.0223 195.473 59.7207 198.165 60.2333C187.392 61.6282 176.794 64.0801 166.612 67.7356C166.057 67.9347 165.588 67.8572 165.228 67.625C165.131 67.6749 165.033 67.723 164.935 67.7713C164.81 67.8325 164.682 67.8939 164.559 67.9592C161.752 69.4397 159.006 71.0453 156.33 72.7642C156.33 72.4805 156.325 72.1968 156.311 71.9074C156.364 69.5731 156.107 67.2739 155.462 65.0577C156.308 63.9518 156.938 62.6914 157.282 61.3923C158.138 58.151 156.509 53.5384 153.582 52.431C152.555 49.6932 150.222 47.7124 147.362 46.9329C147.136 46.7362 146.896 46.5451 146.625 46.3674C146.023 45.9691 145.364 45.6974 144.689 45.5396C144.337 44.0564 143.478 42.6907 142.049 41.7328C140.037 40.3798 137.657 40.2329 135.565 40.9708C135.166 40.8419 134.764 40.7303 134.356 40.6334C130.988 37.8752 125.74 38.0784 122.777 41.3055C120.742 40.4109 118.346 40.3712 116.264 41.575C114.598 42.5383 113.56 44.0916 113.156 45.7962C110.003 45.8891 107.117 47.9029 106.208 50.9086C103.3 51.225 100.923 53.4136 100.418 56.1683C98.5651 56.4168 96.8518 57.2551 95.811 58.9224C95.3283 59.6933 95.0688 60.5369 94.9991 61.3816C94.0615 61.8145 93.2216 62.4697 92.5882 63.3256C91.4749 64.8255 91.2601 66.5769 91.6702 68.2246C91.6312 68.2995 91.5921 68.3733 91.553 68.4474C91.4944 68.5542 91.4358 68.661 91.3828 68.7703C91.0815 69.3898 90.8387 70.0541 90.6211 70.7286C89.6444 72.0851 89.1924 73.7431 89.2817 75.4088C89.0752 76.1134 88.8743 76.8196 88.7069 77.5292C88.0484 80.3145 87.8 83.2815 88.2521 86.1177C88.4781 87.4906 88.8018 88.8407 89.2622 90.1511C89.3096 90.4007 89.385 90.6334 89.4742 90.8546C89.7282 91.8871 90.0518 92.9025 90.4648 93.8951C91.4554 95.1604 92.4906 96.3913 93.5816 97.5825C94.5024 98.91 95.5515 100.135 96.7374 101.259C97.5912 102.07 98.5288 102.824 99.5249 103.505C101.503 105.03 103.716 106.22 106.077 106.994C106.498 106.909 106.922 106.842 107.346 106.777C110.028 108.197 114.247 108.358 116.825 108.348C119.668 108.338 122.272 107.647 124.437 106.342C124.186 106.822 123.935 107.303 123.683 107.786C123.745 107.82 123.815 107.851 123.868 107.892C124.336 107.146 124.858 106.483 125.472 106.007C126.315 105.355 127.668 105.297 128.251 106.351C128.262 106.369 128.271 106.388 128.282 106.407C128.592 106.969 128.547 107.508 128.313 107.948C128.223 108.068 128.14 108.189 128.053 108.309C128.022 108.343 127.992 108.38 127.958 108.411L127.975 108.413C127.169 109.037 126.376 110.564 125.626 112.048C125.118 112.916 124.635 113.795 124.18 114.691C123.918 115.066 123.446 115.396 122.947 115.492C123.044 116.206 122.704 116.945 122.14 117.312C121.995 117.026 121.814 116.733 121.585 116.432C119.052 113.12 114.074 111.691 110.323 113.204C109.576 113.083 108.825 112.983 108.069 112.925C105.594 112.768 103.085 112.955 100.641 113.448C99.8821 113.886 99.1566 114.379 98.4814 114.941C97.9094 115.418 97.3792 115.917 96.8825 116.433C96.5002 116.709 96.1235 117.002 95.7552 117.307C94.2568 118.083 93.1547 119.57 92.231 121.051C91.4972 122.049 90.8554 123.109 90.303 124.232C87.7303 128.464 84.767 133.718 87.0829 137.879ZM293.217 219.66C292.274 220.71 291.537 221.88 291.007 223.168C290.795 223.582 291.055 223.831 291.49 223.756C291.685 223.729 291.95 223.592 292.221 223.41C292.201 223.458 292.179 223.504 292.157 223.549C292.135 223.595 292.112 223.641 292.093 223.689C291.864 224.126 292.056 224.438 292.581 224.274C292.612 224.255 292.64 224.239 292.665 224.223C292.394 224.687 292.146 225.165 291.934 225.664C291.702 226.105 291.909 226.411 292.427 226.241C292.701 226.094 292.958 225.925 293.206 225.737C293.175 225.801 293.145 225.866 293.114 225.93C293.033 226.102 292.949 226.274 292.877 226.451C292.64 226.899 292.913 227.133 293.371 227.031C293.767 226.821 294.132 226.572 294.473 226.282C294.509 226.255 294.543 226.228 294.573 226.199C294.59 226.185 294.604 226.169 294.621 226.156C294.467 226.526 294.757 226.751 295.14 226.679C295.684 226.577 296.702 225.697 296.951 225.232C296.967 225.203 296.979 225.176 296.998 225.146C297.285 224.958 297.598 224.698 297.835 224.449C298.022 224.709 298.388 224.902 298.552 224.585C299.049 223.286 299.822 222.175 300.877 221.238C301.476 220.393 302.208 219.674 303.064 219.078C303.523 218.702 304 218.345 304.49 218.004C305.356 217.626 306.258 217.336 307.201 217.142C307.308 217.11 307.417 217.086 307.526 217.062C307.609 217.04 307.691 217.022 307.773 217L307.843 216.989C308.237 216.92 308.628 216.85 309.023 216.796C310.727 216.571 312.436 216.53 314.146 216.678C314.452 216.689 314.747 216.461 314.877 216.2C315.26 216.219 315.637 216.235 316.02 216.27C316.651 216.292 316.515 215.435 316.038 215.349C315.437 215.242 314.835 215.162 314.246 215.094C314.258 215.044 314.264 214.987 314.252 214.942C315.331 214.891 316.404 214.912 317.488 215.022C317.96 215.044 317.4 214.203 317.14 214.158C317.079 214.147 317.018 214.139 316.956 214.128C316.899 214.12 316.84 214.112 316.781 214.101C316.793 214.085 316.798 214.075 316.804 214.056H316.834C317.482 214.085 317.925 213.092 317.146 212.955C317.053 212.939 316.961 212.926 316.87 212.912C316.771 212.899 316.673 212.883 316.575 212.864C316.61 212.77 316.616 212.684 316.58 212.604C316.916 212.598 317.247 212.598 317.582 212.598C317.495 212.593 317.417 212.413 317.337 212.225C317.25 212.024 317.159 211.815 317.046 211.798L316.527 211.731C316.515 211.522 316.185 211.033 316.044 211.004C314.924 210.824 313.827 210.698 312.743 210.658C312.637 210.422 312.483 210.102 312.336 210.102C311.104 210.086 309.919 210.097 308.74 210.215C308.693 210.183 308.646 210.164 308.604 210.172C308.536 210.185 308.47 210.201 308.405 210.218C308.284 210.244 308.167 210.271 308.044 210.301C307.39 210.392 306.736 210.524 306.07 210.709C304.496 211.157 302.922 211.866 301.56 212.746C300.274 213.575 298.996 214.437 297.874 215.47C297.481 215.792 297.11 216.144 296.755 216.506C296.183 216.96 295.631 217.427 295.098 217.886C294.45 218.458 293.82 219.048 293.217 219.66Z" fill="#003366"/>
<path fill-rule="evenodd" clip-rule="evenodd" d="M168.632 258.123C172.977 259.333 177.636 259.441 182.065 258.19C186.077 257.057 190.201 254.561 193.156 251.26C195.782 248.326 197.481 244.762 197.414 240.958C197.406 240.523 197.244 240.161 196.996 239.879C196.731 239.576 196.357 239.367 195.955 239.278C195.545 239.184 195.109 239.216 194.738 239.38C194.403 239.525 194.116 239.775 193.937 240.14C193.483 240.714 193.031 241.278 192.576 241.828C188.926 246.168 185.388 249.41 179.899 250.573C176.919 251.203 173.945 250.924 171.213 249.961C168.292 248.93 165.649 247.118 163.579 244.799C162.644 243.75 161.539 243.323 160.459 243.315C159.237 243.307 158.026 243.854 157.116 244.729C156.221 245.588 155.621 246.759 155.565 247.98C155.518 249.051 155.88 250.173 156.849 251.171C160.035 254.465 164.165 256.877 168.632 258.123ZM168.766 203.781C164.315 206.385 157.532 212.456 162.32 218.911C167.957 224.604 176.074 218.079 180.072 215.127C183.781 212.84 187.947 218.723 184.506 221.394C155.607 241.984 143.879 204.463 166.514 200.721C169.006 200.308 169.932 202.976 168.766 203.781ZM210.409 192.325C211.837 191.442 213.523 191.142 215.387 191.958C216.843 192.597 219.402 194.722 221.179 197.519C222.396 199.43 223.261 201.674 223.079 204.012C223.038 204.554 223.247 204.954 223.576 205.249C223.836 205.483 224.209 205.655 224.65 205.708C225.024 205.754 225.443 205.714 225.783 205.612C226.431 205.416 226.774 205.013 226.902 204.683C228.149 201.5 227.611 197.946 226.216 194.741C224.332 190.414 220.909 186.791 218.668 185.623C214.831 183.624 210.305 183.532 206.463 185.57C203.193 187.304 201.15 190.103 199.116 192.956C198.684 193.563 198.254 194.164 197.81 194.757C196.923 195.941 196.834 197.117 197.177 198.126C197.559 199.242 198.53 200.184 199.747 200.678C200.871 201.132 202.174 201.196 203.33 200.729C204.303 200.332 205.199 199.562 205.766 198.255C206.717 196.048 208.308 193.617 210.409 192.325ZM137.743 197.229C138.723 197.72 139.49 197.868 140.578 197.554C141.178 197.38 141.773 197.047 142.239 196.601C142.699 196.156 143.031 195.605 143.159 194.993C143.477 193.482 144.337 192.068 145.562 191.147C146.605 190.361 147.928 189.942 149.39 190.178C150.972 190.431 152.476 191.408 153.514 192.556C153.86 192.94 154.131 193.378 154.404 193.812C154.915 194.623 155.412 195.377 156.118 195.973C156.383 196.201 156.787 196.357 157.175 196.357C157.334 196.357 157.496 196.333 157.649 196.287C159.22 194.768 159.524 193.617 159.474 192.473C159.418 191.273 158.93 190.06 158.135 188.927C156.274 186.273 152.738 184.093 150.356 183.602C147.088 182.926 143.846 183.736 141.245 185.492C138.569 187.298 136.585 190.103 135.969 193.262C135.818 194.024 135.882 194.846 136.184 195.557C136.477 196.255 136.99 196.851 137.743 197.229ZM203.204 164.007C205.166 165.845 207.484 166.129 209.831 166.383C211.137 166.525 212.178 166.639 213.202 166.862C216.017 167.473 218.799 168.394 221.338 169.721C223.995 171.108 226.885 172.78 228.967 174.923C229.464 175.433 229.93 175.968 230.396 176.504C230.823 176.993 231.233 177.464 231.665 177.918C232.162 178.439 232.633 178.985 233.102 179.53C233.392 179.99 233.448 180.103 233.507 180.221C233.596 180.398 233.697 180.596 233.814 180.808C233.976 181.099 234.163 181.417 234.358 181.706C234.684 182.234 234.86 182.379 235.011 182.444C235.262 182.552 235.499 182.605 235.731 182.576C235.948 182.549 236.152 182.449 236.353 182.285C237.36 181.467 237.656 180.124 237.625 178.699C237.581 176.536 236.752 174.141 235.987 172.669C234.21 169.249 231.746 165.693 228.783 163.14C225.401 160.226 221.701 158.02 217.451 156.5C214.812 155.554 211.754 154.687 208.877 154.796C206.806 154.875 204.831 155.468 203.198 156.947C202.194 157.855 201.714 159.147 201.714 160.437C201.714 161.754 202.213 163.078 203.204 164.007ZM133.756 180.835C133.882 181.032 134.055 181.168 134.247 181.249C134.448 181.334 134.671 181.359 134.886 181.324C135.101 181.289 135.307 181.195 135.469 181.052C135.623 180.915 135.74 180.733 135.793 180.51C137.096 175.01 139.621 170.918 145.015 168.279C147.668 166.981 150.718 166.156 153.606 165.499C154.446 165.308 155.333 165.184 156.226 165.058C159.025 164.665 161.843 164.215 163.668 162.038C164.768 160.726 165.231 159.049 164.968 157.515C164.723 156.071 163.847 154.747 162.251 153.953C158.283 151.979 153.352 153.916 149.343 155.567C149.047 155.689 148.754 155.81 148.469 155.926C144.549 157.518 140.974 159.619 138.036 162.624C135.704 165.009 133.544 168.533 132.673 172.159C131.951 175.176 132.121 178.255 133.756 180.835Z" fill="#003366"/>
<ellipse cx="213.284" cy="198.311" rx="5.28368" ry="5.31068" fill="#003366"/>
<ellipse cx="148.699" cy="194.717" rx="3.69858" ry="3.71748" fill="#003366"/>
</svg>
